{
    "asset": {
        "version": "2.0",
        "generator": "Open Asset Import Library (assimp v3.1.31193554)"
    },
    "accessors": [
        {
            "bufferView": 0,
            "byteOffset": 0,
            "componentType": 5126,
            "count": 21,
            "type": "VEC3",
            "max": [
                -4480.0,
                448.0,
                10624.0
            ],
            "min": [
                -4736.0,
                448.0,
                10368.0
            ]
        },
        {
            "bufferView": 1,
            "byteOffset": 0,
            "componentType": 5126,
            "count": 21,
            "type": "VEC3",
            "max": [
                0.0,
                -1.0,
                0.0
            ],
            "min": [
                0.0,
                -1.0,
                0.0
            ]
        },
        {
            "bufferView": 2,
            "byteOffset": 0,
            "componentType": 5126,
            "count": 21,
            "type": "VEC2",
            "max": [
                0.9910932779312134,
                0.9910932779312134
            ],
            "min": [
                0.008906695060431958,
                0.008906722068786621
            ]
        },
        {
            "bufferView": 3,
            "byteOffset": 0,
            "componentType": 5123,
            "count": 69,
            "type": "SCALAR",
            "max": [
                20.0
            ],
            "min": [
                0.0
            ]
        }
    ],
    "buffers": [
        {
            "byteLength": 810,
            "uri": "grdlit_1.bin"
        }
    ],
    "bufferViews": [
        {
            "buffer": 0,
            "byteOffset": 0,
            "byteLength": 252,
            "target": 34962
        },
        {
            "buffer": 0,
            "byteOffset": 252,
            "byteLength": 252,
            "target": 34962
        },
        {
            "buffer": 0,
            "byteOffset": 504,
            "byteLength": 168,
            "target": 34962
        },
        {
            "buffer": 0,
            "byteOffset": 672,
            "byteLength": 138,
            "target": 34963
        }
    ],
    "materials": [
        {
            "name": "F_GRDLIT",
            "pbrMetallicRoughness": {
                "metallicFactor": 0.0
            }
        }
    ],
    "meshes": [
        {
            "name": "F_GRDLIT_1",
            "primitives": [
                {
                    "mode": 4,
                    "material": 0,
                    "indices": 3,
                    "attributes": {
                        "POSITION": 0,
                        "NORMAL": 1,
                        "TEXCOORD_0": 2
                    }
                }
            ]
        }
    ],
    "nodes": [
        {
            "name": "RootNode",
            "children": [
                1
            ]
        },
        {
            "name": "F_GRDLIT_1",
            "mesh": 0
        }
    ],
    "scenes": [
        {
            "nodes": [
                0
            ]
        }
    ],
    "scene": 0
}