# WaveFront *.obj file (generated by Cinema 4D)

mtllib ./F_GDCONC.1.mtl

v -4608 384 9344
v -4608 384 9312
v -4608 384 9504
v -4608 384 9472
v -4608 416 9376
v -4608 416 9344
v -4608 416 9472
v -4608 416 9440
v -4608 448 9440
v -4608 448 9376
v -4592 416 9472
v -4592 384 9472
v -4576 416 9472
v -4576 384 9472
v -4592 448 9440
v -4592 416 9440
v -4592 416 9376
v -4592 448 9376
v -4592 384 9344
v -4592 416 9344
v -4576 448 9440
v -4576 416 9440
v -4576 416 9376
v -4576 448 9376
v -4576 384 9344
v -4576 416 9344
v -4592 384 9504
v -4576 384 9504
v -4592 384 9312
v -4576 384 9312
# 30 vertices

vn 0 -1 0
vn 0.99929350614548 0.03758324682713 0
vn 0 0 0
vn 0 0 -1
vn -0.53022432327271 -0.53022432327271 -0.6616073846817
vn 0.99929910898209 0.03743397071958 0
vn 0 1 0
vn -0.57735025882721 -0.57735025882721 0.57735025882721
vn 1 0 0
# 9 normals

vt 0.34111696481705 0.66930228471756 0
vt 0.34111696481705 0.99209326505661 0
vt 0.5 0.99209326505661 0
vt 0 1 0
vt 0.5 0.33069777488708 0
vt 0.34111696481705 0.33069777488708 0
vt 0.34111696481705 0.65348881483078 0
vt 0.5 0.66930228471756 0
vt 0.65888297557831 0.99209326505661 0
vt 0.65888297557831 0.33069777488708 0
vt 0.5 0.65348881483078 0
vt 0.16666665673256 0.34651124477386 0
vt 0.00778364669532 0.34651124477386 0
vt 0.00778364669532 0.99209326505661 0
vt 0.16666665673256 0.00790679454803 0
vt 0.00778364669532 0.00790679454803 0
vt 0.00778364669532 0.33069777488708 0
vt 0.83333325386047 0.66930228471756 0
vt 0.67445027828217 0.66930228471756 0
vt 0.67445027828217 0.99209326505661 0
vt 0.32554966211319 0.34651124477386 0
vt 0.16666665673256 0.99209326505661 0
vt 0.32554966211319 0.00790679454803 0
vt 0.16666665673256 0.33069777488708 0
vt 0.99221634864807 0.66930228471756 0
vt 0.83333325386047 0.99209326505661 0
vt 0.65888297557831 0.66930228471756 0
vt 0.65888297557831 0.65348881483078 0
vt 0.32554966211319 0.99209326505661 0
vt 0.32554966211319 0.33069777488708 0
vt 0.99221634864807 0.99209326505661 0
# 31 texture coordinates

o F_GDCONC.1
usemtl F_GDCONC
f 11/3/1 7/2/1 8/1/1
f 3/7/1 4/6/1 12/5/1
f 13/9/1 11/3/1 16/8/1
f 27/11/1 12/5/1 14/10/1
f 9/14/1 10/13/1 18/12/1
f 5/17/1 6/16/1 20/15/1
f 1/20/1 2/19/1 29/18/1
f 15/22/1 18/12/1 24/21/1
f 17/24/1 20/15/1 26/23/1
f 19/26/1 29/18/1 30/25/1
f 16/8/1 11/3/1 8/1/1
f 27/11/1 3/7/1 12/5/1
f 22/27/1 13/9/1 16/8/1
f 28/28/1 27/11/1 14/10/1
f 15/22/1 9/14/1 18/12/1
f 17/24/1 5/17/1 20/15/1
f 19/26/1 1/20/1 29/18/1
f 21/29/1 15/22/1 24/21/1
f 23/30/1 17/24/1 26/23/1
f 25/31/1 19/26/1 30/25/1

