# WaveFront *.obj file (generated by Cinema 4D)

mtllib ./F_GDCONC.3.mtl

v -4608 400 9776
v -4608 400 9584
v -4608 304 9776
v -4608 304 9584
v -4576 400 9584
v -4576 400 9776
v -4576 304 9584
v -4576 304 9776
# 8 vertices

vn 0 1 0
vn -0.99952960014343 0.03066825680435 0
vn 0 -1 0
vn -0.99951153993607 0.03125101327896 0
vn 0 0 0
# 5 normals

vt 0.016198258847 0.9942923784256 0
vt 0.48380175232887 0.9942923784256 0
vt 0.48380175232887 0.0057076215744 0
vt 0.32793390750885 0.6647641658783 0
vt 0.98380172252655 0.0057076215744 0
vt 0.51619827747345 0.0057076215744 0
vt 0.51619827747345 0.9942923784256 0
vt 0.67206609249115 0.33523595333099 0
vt 0.016198258847 0.0057076215744 0
vt 0.98380172252655 0.9942923784256 0
# 10 texture coordinates

o F_GDCONC.3
usemtl F_GDCONC
f 8/3/1 7/2/1 4/1/1
f 1/7/3 2/6/3 5/5/3
f 3/9/1 8/3/1 4/1/1
f 6/10/3 1/7/3 5/5/3

