{
    "asset": {
        "version": "2.0",
        "generator": "Open Asset Import Library (assimp v3.1.31193554)"
    },
    "accessors": [
        {
            "bufferView": 0,
            "byteOffset": 0,
            "componentType": 5126,
            "count": 16,
            "type": "VEC3",
            "max": [
                -5424.00048828125,
                624.0,
                9856.0009765625
            ],
            "min": [
                -5776.00048828125,
                624.0,
                9136.0009765625
            ]
        },
        {
            "bufferView": 1,
            "byteOffset": 0,
            "componentType": 5126,
            "count": 16,
            "type": "VEC3",
            "max": [
                0.0,
                -1.0,
                0.0
            ],
            "min": [
                0.0,
                -1.0,
                0.0
            ]
        },
        {
            "bufferView": 2,
            "byteOffset": 0,
            "componentType": 5126,
            "count": 16,
            "type": "VEC2",
            "max": [
                0.9860957860946655,
                0.9931043386459351
            ],
            "min": [
                0.013904224149882794,
                0.006895601749420166
            ]
        },
        {
            "bufferView": 3,
            "byteOffset": 0,
            "componentType": 5123,
            "count": 42,
            "type": "SCALAR",
            "max": [
                15.0
            ],
            "min": [
                0.0
            ]
        }
    ],
    "buffers": [
        {
            "byteLength": 596,
            "uri": "deck_8.bin"
        }
    ],
    "bufferViews": [
        {
            "buffer": 0,
            "byteOffset": 0,
            "byteLength": 192,
            "target": 34962
        },
        {
            "buffer": 0,
            "byteOffset": 192,
            "byteLength": 192,
            "target": 34962
        },
        {
            "buffer": 0,
            "byteOffset": 384,
            "byteLength": 128,
            "target": 34962
        },
        {
            "buffer": 0,
            "byteOffset": 512,
            "byteLength": 84,
            "target": 34963
        }
    ],
    "materials": [
        {
            "name": "F_DECK",
            "pbrMetallicRoughness": {
                "metallicFactor": 0.0
            }
        }
    ],
    "meshes": [
        {
            "name": "F_DECK_8",
            "primitives": [
                {
                    "mode": 4,
                    "material": 0,
                    "indices": 3,
                    "attributes": {
                        "POSITION": 0,
                        "NORMAL": 1,
                        "TEXCOORD_0": 2
                    }
                }
            ]
        }
    ],
    "nodes": [
        {
            "name": "RootNode",
            "children": [
                1
            ]
        },
        {
            "name": "F_DECK_8",
            "mesh": 0
        }
    ],
    "scenes": [
        {
            "nodes": [
                0
            ]
        }
    ],
    "scene": 0
}