{
    "asset": {
        "version": "2.0",
        "generator": "Open Asset Import Library (assimp v3.1.31193554)"
    },
    "accessors": [
        {
            "bufferView": 0,
            "byteOffset": 0,
            "componentType": 5126,
            "count": 4,
            "type": "VEC3",
            "max": [
                3175.9951171875,
                813.651123046875,
                1930.0361328125
            ],
            "min": [
                -3175.9951171875,
                813.651123046875,
                -1930.0361328125
            ]
        },
        {
            "bufferView": 1,
            "byteOffset": 0,
            "componentType": 5126,
            "count": 4,
            "type": "VEC3",
            "max": [
                0.0,
                -1.0,
                0.0
            ],
            "min": [
                0.0,
                -1.0,
                0.0
            ]
        },
        {
            "bufferView": 2,
            "byteOffset": 0,
            "componentType": 5126,
            "count": 4,
            "type": "VEC2",
            "max": [
                1.0,
                1.0
            ],
            "min": [
                0.0,
                0.0
            ]
        },
        {
            "bufferView": 3,
            "byteOffset": 0,
            "componentType": 5123,
            "count": 6,
            "type": "SCALAR",
            "max": [
                3.0
            ],
            "min": [
                0.0
            ]
        },
        {
            "bufferView": 4,
            "byteOffset": 0,
            "componentType": 5126,
            "count": 4,
            "type": "VEC3",
            "max": [
                3175.9951171875,
                813.651123046875,
                1930.0361328125
            ],
            "min": [
                -3175.9951171875,
                -813.651123046875,
                1930.0361328125
            ]
        },
        {
            "bufferView": 5,
            "byteOffset": 0,
            "componentType": 5126,
            "count": 4,
            "type": "VEC3",
            "max": [
                0.0,
                0.0,
                -1.0
            ],
            "min": [
                0.0,
                0.0,
                -1.0
            ]
        },
        {
            "bufferView": 6,
            "byteOffset": 0,
            "componentType": 5126,
            "count": 4,
            "type": "VEC2",
            "max": [
                1.0,
                1.0
            ],
            "min": [
                0.0,
                0.0
            ]
        },
        {
            "bufferView": 7,
            "byteOffset": 0,
            "componentType": 5123,
            "count": 6,
            "type": "SCALAR",
            "max": [
                3.0
            ],
            "min": [
                0.0
            ]
        },
        {
            "bufferView": 8,
            "byteOffset": 0,
            "componentType": 5126,
            "count": 4,
            "type": "VEC3",
            "max": [
                -3175.9951171875,
                813.651123046875,
                1930.0361328125
            ],
            "min": [
                -3175.9951171875,
                -813.651123046875,
                -1930.0361328125
            ]
        },
        {
            "bufferView": 9,
            "byteOffset": 0,
            "componentType": 5126,
            "count": 4,
            "type": "VEC3",
            "max": [
                1.0,
                0.0,
                0.0
            ],
            "min": [
                1.0,
                0.0,
                0.0
            ]
        },
        {
            "bufferView": 10,
            "byteOffset": 0,
            "componentType": 5126,
            "count": 4,
            "type": "VEC2",
            "max": [
                1.0,
                1.0
            ],
            "min": [
                0.0,
                0.0
            ]
        },
        {
            "bufferView": 11,
            "byteOffset": 0,
            "componentType": 5123,
            "count": 6,
            "type": "SCALAR",
            "max": [
                3.0
            ],
            "min": [
                0.0
            ]
        },
        {
            "bufferView": 12,
            "byteOffset": 0,
            "componentType": 5126,
            "count": 4,
            "type": "VEC3",
            "max": [
                3175.9951171875,
                813.651123046875,
                -1930.0361328125
            ],
            "min": [
                -3175.9951171875,
                -813.651123046875,
                -1930.0361328125
            ]
        },
        {
            "bufferView": 13,
            "byteOffset": 0,
            "componentType": 5126,
            "count": 4,
            "type": "VEC3",
            "max": [
                0.0,
                0.0,
                1.0
            ],
            "min": [
                0.0,
                0.0,
                1.0
            ]
        },
        {
            "bufferView": 14,
            "byteOffset": 0,
            "componentType": 5126,
            "count": 4,
            "type": "VEC2",
            "max": [
                1.0,
                1.0
            ],
            "min": [
                0.0,
                0.0
            ]
        },
        {
            "bufferView": 15,
            "byteOffset": 0,
            "componentType": 5123,
            "count": 6,
            "type": "SCALAR",
            "max": [
                3.0
            ],
            "min": [
                0.0
            ]
        },
        {
            "bufferView": 16,
            "byteOffset": 0,
            "componentType": 5126,
            "count": 4,
            "type": "VEC3",
            "max": [
                3175.9951171875,
                813.651123046875,
                1930.0361328125
            ],
            "min": [
                3175.9951171875,
                -813.651123046875,
                -1930.0361328125
            ]
        },
        {
            "bufferView": 17,
            "byteOffset": 0,
            "componentType": 5126,
            "count": 4,
            "type": "VEC3",
            "max": [
                -1.0,
                0.0,
                0.0
            ],
            "min": [
                -1.0,
                0.0,
                0.0
            ]
        },
        {
            "bufferView": 18,
            "byteOffset": 0,
            "componentType": 5126,
            "count": 4,
            "type": "VEC2",
            "max": [
                1.0,
                1.0
            ],
            "min": [
                0.0,
                0.0
            ]
        },
        {
            "bufferView": 19,
            "byteOffset": 0,
            "componentType": 5123,
            "count": 6,
            "type": "SCALAR",
            "max": [
                3.0
            ],
            "min": [
                0.0
            ]
        },
        {
            "bufferView": 20,
            "byteOffset": 0,
            "componentType": 5126,
            "count": 4,
            "type": "VEC3",
            "max": [
                3175.9951171875,
                -813.651123046875,
                1930.0361328125
            ],
            "min": [
                -3175.9951171875,
                -813.651123046875,
                -1930.0361328125
            ]
        },
        {
            "bufferView": 21,
            "byteOffset": 0,
            "componentType": 5126,
            "count": 4,
            "type": "VEC3",
            "max": [
                0.0,
                1.0,
                0.0
            ],
            "min": [
                0.0,
                1.0,
                0.0
            ]
        },
        {
            "bufferView": 22,
            "byteOffset": 0,
            "componentType": 5126,
            "count": 4,
            "type": "VEC2",
            "max": [
                1.0,
                1.0
            ],
            "min": [
                0.0,
                0.0
            ]
        },
        {
            "bufferView": 23,
            "byteOffset": 0,
            "componentType": 5123,
            "count": 6,
            "type": "SCALAR",
            "max": [
                3.0
            ],
            "min": [
                0.0
            ]
        }
    ],
    "buffers": [
        {
            "byteLength": 840,
            "uri": "skybox.bin"
        }
    ],
    "bufferViews": [
        {
            "buffer": 0,
            "byteOffset": 0,
            "byteLength": 48,
            "target": 34962
        },
        {
            "buffer": 0,
            "byteOffset": 48,
            "byteLength": 48,
            "target": 34962
        },
        {
            "buffer": 0,
            "byteOffset": 96,
            "byteLength": 32,
            "target": 34962
        },
        {
            "buffer": 0,
            "byteOffset": 128,
            "byteLength": 12,
            "target": 34963
        },
        {
            "buffer": 0,
            "byteOffset": 140,
            "byteLength": 48,
            "target": 34962
        },
        {
            "buffer": 0,
            "byteOffset": 188,
            "byteLength": 48,
            "target": 34962
        },
        {
            "buffer": 0,
            "byteOffset": 236,
            "byteLength": 32,
            "target": 34962
        },
        {
            "buffer": 0,
            "byteOffset": 268,
            "byteLength": 12,
            "target": 34963
        },
        {
            "buffer": 0,
            "byteOffset": 280,
            "byteLength": 48,
            "target": 34962
        },
        {
            "buffer": 0,
            "byteOffset": 328,
            "byteLength": 48,
            "target": 34962
        },
        {
            "buffer": 0,
            "byteOffset": 376,
            "byteLength": 32,
            "target": 34962
        },
        {
            "buffer": 0,
            "byteOffset": 408,
            "byteLength": 12,
            "target": 34963
        },
        {
            "buffer": 0,
            "byteOffset": 420,
            "byteLength": 48,
            "target": 34962
        },
        {
            "buffer": 0,
            "byteOffset": 468,
            "byteLength": 48,
            "target": 34962
        },
        {
            "buffer": 0,
            "byteOffset": 516,
            "byteLength": 32,
            "target": 34962
        },
        {
            "buffer": 0,
            "byteOffset": 548,
            "byteLength": 12,
            "target": 34963
        },
        {
            "buffer": 0,
            "byteOffset": 560,
            "byteLength": 48,
            "target": 34962
        },
        {
            "buffer": 0,
            "byteOffset": 608,
            "byteLength": 48,
            "target": 34962
        },
        {
            "buffer": 0,
            "byteOffset": 656,
            "byteLength": 32,
            "target": 34962
        },
        {
            "buffer": 0,
            "byteOffset": 688,
            "byteLength": 12,
            "target": 34963
        },
        {
            "buffer": 0,
            "byteOffset": 700,
            "byteLength": 48,
            "target": 34962
        },
        {
            "buffer": 0,
            "byteOffset": 748,
            "byteLength": 48,
            "target": 34962
        },
        {
            "buffer": 0,
            "byteOffset": 796,
            "byteLength": 32,
            "target": 34962
        },
        {
            "buffer": 0,
            "byteOffset": 828,
            "byteLength": 12,
            "target": 34963
        }
    ],
    "materials": [
        {
            "name": "skybox1",
            "pbrMetallicRoughness": {
                "baseColorFactor": [
                    0.800000011920929,
                    0.800000011920929,
                    0.800000011920929,
                    1.0
                ],
                "metallicFactor": 0.0
            }
        },
        {
            "name": "skybox2",
            "pbrMetallicRoughness": {
                "baseColorFactor": [
                    0.800000011920929,
                    0.800000011920929,
                    0.800000011920929,
                    1.0
                ],
                "metallicFactor": 0.0
            }
        },
        {
            "name": "skybox3",
            "pbrMetallicRoughness": {
                "baseColorFactor": [
                    0.800000011920929,
                    0.800000011920929,
                    0.800000011920929,
                    1.0
                ],
                "metallicFactor": 0.0
            }
        },
        {
            "name": "skybox4",
            "pbrMetallicRoughness": {
                "baseColorFactor": [
                    0.800000011920929,
                    0.800000011920929,
                    0.800000011920929,
                    1.0
                ],
                "metallicFactor": 0.0
            }
        },
        {
            "name": "skybox5",
            "pbrMetallicRoughness": {
                "baseColorFactor": [
                    0.800000011920929,
                    0.800000011920929,
                    0.800000011920929,
                    1.0
                ],
                "metallicFactor": 0.0
            }
        },
        {
            "name": "skybox6",
            "pbrMetallicRoughness": {
                "baseColorFactor": [
                    0.800000011920929,
                    0.800000011920929,
                    0.800000011920929,
                    1.0
                ],
                "metallicFactor": 0.0
            }
        }
    ],
    "meshes": [
        {
            "name": "skybox",
            "primitives": [
                {
                    "mode": 4,
                    "material": 0,
                    "indices": 3,
                    "attributes": {
                        "POSITION": 0,
                        "NORMAL": 1,
                        "TEXCOORD_0": 2
                    }
                },
                {
                    "mode": 4,
                    "material": 1,
                    "indices": 7,
                    "attributes": {
                        "POSITION": 4,
                        "NORMAL": 5,
                        "TEXCOORD_0": 6
                    }
                },
                {
                    "mode": 4,
                    "material": 2,
                    "indices": 11,
                    "attributes": {
                        "POSITION": 8,
                        "NORMAL": 9,
                        "TEXCOORD_0": 10
                    }
                },
                {
                    "mode": 4,
                    "material": 3,
                    "indices": 15,
                    "attributes": {
                        "POSITION": 12,
                        "NORMAL": 13,
                        "TEXCOORD_0": 14
                    }
                },
                {
                    "mode": 4,
                    "material": 4,
                    "indices": 19,
                    "attributes": {
                        "POSITION": 16,
                        "NORMAL": 17,
                        "TEXCOORD_0": 18
                    }
                },
                {
                    "mode": 4,
                    "material": 5,
                    "indices": 23,
                    "attributes": {
                        "POSITION": 20,
                        "NORMAL": 21,
                        "TEXCOORD_0": 22
                    }
                }
            ]
        }
    ],
    "nodes": [
        {
            "name": "RootNode",
            "children": [
                1
            ]
        },
        {
            "name": "skybox",
            "matrix": [
                1.0,
                0.0,
                0.0,
                0.0,
                0.0,
                1.0,
                0.0,
                0.0,
                0.0,
                0.0,
                1.0,
                0.0,
                -4309.015625,
                450.9844055175781,
                10693.9345703125,
                1.0
            ],
            "mesh": 0
        }
    ],
    "scenes": [
        {
            "nodes": [
                0
            ]
        }
    ],
    "scene": 0
}