{
    "asset": {
        "version": "2.0",
        "generator": "Open Asset Import Library (assimp v3.1.31193554)"
    },
    "accessors": [
        {
            "bufferView": 0,
            "byteOffset": 0,
            "componentType": 5126,
            "count": 52,
            "type": "VEC3",
            "max": [
                -5904.0,
                448.0000305175781,
                11680.0009765625
            ],
            "min": [
                -6976.0,
                448.0000305175781,
                10288.0009765625
            ]
        },
        {
            "bufferView": 1,
            "byteOffset": 0,
            "componentType": 5126,
            "count": 52,
            "type": "VEC3",
            "max": [
                0.0,
                1.0,
                0.0
            ],
            "min": [
                0.0,
                1.0,
                0.0
            ]
        },
        {
            "bufferView": 2,
            "byteOffset": 0,
            "componentType": 5126,
            "count": 52,
            "type": "VEC2",
            "max": [
                0.9901415109634399,
                0.9913061857223511
            ],
            "min": [
                0.009858484379947186,
                0.00869375467300415
            ]
        },
        {
            "bufferView": 3,
            "byteOffset": 0,
            "componentType": 5123,
            "count": 132,
            "type": "SCALAR",
            "max": [
                51.0
            ],
            "min": [
                0.0
            ]
        }
    ],
    "buffers": [
        {
            "byteLength": 1928,
            "uri": "bashxl_3.bin"
        }
    ],
    "bufferViews": [
        {
            "buffer": 0,
            "byteOffset": 0,
            "byteLength": 624,
            "target": 34962
        },
        {
            "buffer": 0,
            "byteOffset": 624,
            "byteLength": 624,
            "target": 34962
        },
        {
            "buffer": 0,
            "byteOffset": 1248,
            "byteLength": 416,
            "target": 34962
        },
        {
            "buffer": 0,
            "byteOffset": 1664,
            "byteLength": 264,
            "target": 34963
        }
    ],
    "materials": [
        {
            "name": "F_BASHXL",
            "pbrMetallicRoughness": {
                "metallicFactor": 0.0
            }
        }
    ],
    "meshes": [
        {
            "name": "F_BASHXL_3",
            "primitives": [
                {
                    "mode": 4,
                    "material": 0,
                    "indices": 3,
                    "attributes": {
                        "POSITION": 0,
                        "NORMAL": 1,
                        "TEXCOORD_0": 2
                    }
                }
            ]
        }
    ],
    "nodes": [
        {
            "name": "RootNode",
            "children": [
                1
            ]
        },
        {
            "name": "F_BASHXL_3",
            "mesh": 0
        }
    ],
    "scenes": [
        {
            "nodes": [
                0
            ]
        }
    ],
    "scene": 0
}