# WaveFront *.obj file (generated by Cinema 4D)

mtllib ./CONCRT01_newuv_normfixed.mtl

v -4304 320 9848
v -4304 448 9848
v -4272 448 9784
v -4272 320 9784
v -4432 320 9848
v -4432 448 9848
v -4464 320 9784
v -4464 448 9784
# 8 vertices

vn -0.89442718029022 0 -0.44721359014511
vn 0 0 0
vn 0 0 -1
vn 0.89442718029022 0 -0.44721359014511
vn 0 0 -1
vn 0.89442718029022 0 -0.44721359014511
vn nan nan nan
# 7 normals

vt 0.01375313848257 0.00697255134583 0
vt 0.01375313848257 0.99302756786346 0
vt 0.98624688386917 0.99302756786346 0
vt 0.35297617316246 0.66428804397583 0
vt 0.00980392191559 0.00980401039124 0
vt 0.00980392191559 0.99019610881805 0
vt 0.99019604921341 0.99019610881805 0
vt 0.34140628576279 0.65962320566177 0
vt 0.34330686926842 0.66043627262115 0
vt 0.98624688386917 0.00697255134583 0
vt 0.35297617316246 0.6605452299118 0
vt 0.99019604921341 0.00980401039124 0
vt 0.33667021989822 0.65962320566177 0
vt 0.34330686926842 0.65669345855713 0
# 14 texture coordinates

o CONCRT01.1
usemtl conct1
f 2/3/1 3/2/1 4/1/1
f 1/10/1 2/3/1 4/1/1

usemtl conct2
f 6/7/3 2/6/3 1/5/3
f 5/12/5 6/7/5 1/5/5

usemtl conct3
f 8/3/4 6/2/4 5/1/4
f 7/10/6 8/3/6 5/1/6

