{
    "asset": {
        "version": "2.0",
        "generator": "Open Asset Import Library (assimp v3.1.31193554)"
    },
    "accessors": [
        {
            "bufferView": 0,
            "byteOffset": 0,
            "componentType": 5126,
            "count": 7,
            "type": "VEC3",
            "max": [
                -5903.99951171875,
                448.0000305175781,
                11856.0
            ],
            "min": [
                -6199.99951171875,
                448.0000305175781,
                11680.0
            ]
        },
        {
            "bufferView": 1,
            "byteOffset": 0,
            "componentType": 5126,
            "count": 7,
            "type": "VEC3",
            "max": [
                0.0,
                1.0,
                0.0
            ],
            "min": [
                0.0,
                1.0,
                0.0
            ]
        },
        {
            "bufferView": 2,
            "byteOffset": 0,
            "componentType": 5126,
            "count": 7,
            "type": "VEC2",
            "max": [
                0.9924061298370361,
                0.9873592853546143
            ],
            "min": [
                0.007593883201479912,
                0.012640655040740967
            ]
        },
        {
            "bufferView": 3,
            "byteOffset": 0,
            "componentType": 5123,
            "count": 15,
            "type": "SCALAR",
            "max": [
                6.0
            ],
            "min": [
                0.0
            ]
        }
    ],
    "buffers": [
        {
            "byteLength": 254,
            "uri": "topper_1.bin"
        }
    ],
    "bufferViews": [
        {
            "buffer": 0,
            "byteOffset": 0,
            "byteLength": 84,
            "target": 34962
        },
        {
            "buffer": 0,
            "byteOffset": 84,
            "byteLength": 84,
            "target": 34962
        },
        {
            "buffer": 0,
            "byteOffset": 168,
            "byteLength": 56,
            "target": 34962
        },
        {
            "buffer": 0,
            "byteOffset": 224,
            "byteLength": 30,
            "target": 34963
        }
    ],
    "materials": [
        {
            "name": "F_TOPPER",
            "pbrMetallicRoughness": {
                "metallicFactor": 0.0
            }
        }
    ],
    "meshes": [
        {
            "name": "F_TOPPER_1",
            "primitives": [
                {
                    "mode": 4,
                    "material": 0,
                    "indices": 3,
                    "attributes": {
                        "POSITION": 0,
                        "NORMAL": 1,
                        "TEXCOORD_0": 2
                    }
                }
            ]
        }
    ],
    "nodes": [
        {
            "name": "RootNode",
            "children": [
                1
            ]
        },
        {
            "name": "F_TOPPER_1",
            "mesh": 0
        }
    ],
    "scenes": [
        {
            "nodes": [
                0
            ]
        }
    ],
    "scene": 0
}