{
    "asset": {
        "version": "2.0",
        "generator": "Open Asset Import Library (assimp v3.1.31193554)"
    },
    "accessors": [
        {
            "bufferView": 0,
            "byteOffset": 0,
            "componentType": 5126,
            "count": 104,
            "type": "VEC3",
            "max": [
                -4368.0,
                432.0,
                10528.0009765625
            ],
            "min": [
                -5024.0,
                240.0,
                9856.0009765625
            ]
        },
        {
            "bufferView": 1,
            "byteOffset": 0,
            "componentType": 5126,
            "count": 104,
            "type": "VEC3",
            "max": [
                1.0,
                0.0,
                1.0
            ],
            "min": [
                -1.0,
                0.0,
                -1.0
            ]
        },
        {
            "bufferView": 2,
            "byteOffset": 0,
            "componentType": 5126,
            "count": 104,
            "type": "VEC2",
            "max": [
                0.9918860197067261,
                0.9915812015533447
            ],
            "min": [
                0.008113973774015904,
                0.008418738842010498
            ]
        },
        {
            "bufferView": 3,
            "byteOffset": 0,
            "componentType": 5123,
            "count": 156,
            "type": "SCALAR",
            "max": [
                103.0
            ],
            "min": [
                0.0
            ]
        }
    ],
    "buffers": [
        {
            "byteLength": 3640,
            "uri": "brkgry01_3.bin"
        }
    ],
    "bufferViews": [
        {
            "buffer": 0,
            "byteOffset": 0,
            "byteLength": 1248,
            "target": 34962
        },
        {
            "buffer": 0,
            "byteOffset": 1248,
            "byteLength": 1248,
            "target": 34962
        },
        {
            "buffer": 0,
            "byteOffset": 2496,
            "byteLength": 832,
            "target": 34962
        },
        {
            "buffer": 0,
            "byteOffset": 3328,
            "byteLength": 312,
            "target": 34963
        }
    ],
    "materials": [
        {
            "name": "BRKGRY01",
            "pbrMetallicRoughness": {
                "metallicFactor": 0.0
            }
        }
    ],
    "meshes": [
        {
            "name": "BRKGRY01_3",
            "primitives": [
                {
                    "mode": 4,
                    "material": 0,
                    "indices": 3,
                    "attributes": {
                        "POSITION": 0,
                        "NORMAL": 1,
                        "TEXCOORD_0": 2
                    }
                }
            ]
        }
    ],
    "nodes": [
        {
            "name": "RootNode",
            "children": [
                1
            ]
        },
        {
            "name": "BRKGRY01_3",
            "mesh": 0
        }
    ],
    "scenes": [
        {
            "nodes": [
                0
            ]
        }
    ],
    "scene": 0
}