# WaveFront *.obj file (generated by Cinema 4D)

mtllib ./F_GDCONC.2.mtl

v -4608 400 9232
v -4608 400 9040
v -4608 304 9232
v -4608 304 9040
v -4576 400 9040
v -4576 400 9232
v -4576 304 9040
v -4576 304 9232
# 8 vertices

vn 0 1 0
vn -0.48291978240013 0.87566459178925 0
vn 0 -1 0
vn -0.99742138385773 0.07176768779755 0
vn 0 0 0
# 5 normals

vt 0.016198258847 0.9942923784256 0
vt 0.48380172252655 0.9942923784256 0
vt 0.48380172252655 0.0057076215744 0
vt 0 1 0
vt 0.98380172252655 0.0057076215744 0
vt 0.51619827747345 0.0057076215744 0
vt 0.51619827747345 0.9942923784256 0
vt 0.016198258847 0.0057076215744 0
vt 0.98380172252655 0.9942923784256 0
# 9 texture coordinates

o F_GDCONC.2
usemtl F_GDCONC
f 8/3/1 7/2/1 4/1/1
f 1/7/3 2/6/3 5/5/3
f 3/8/1 8/3/1 4/1/1
f 6/9/3 1/7/3 5/5/3

