{
    "asset": {
        "version": "2.0",
        "generator": "Open Asset Import Library (assimp v3.1.31193554)"
    },
    "accessors": [
        {
            "bufferView": 0,
            "byteOffset": 0,
            "componentType": 5126,
            "count": 32,
            "type": "VEC3",
            "max": [
                -4928.0,
                0.0,
                11840.0
            ],
            "min": [
                -5440.0,
                -256.0,
                11456.0
            ]
        },
        {
            "bufferView": 1,
            "byteOffset": 0,
            "componentType": 5126,
            "count": 32,
            "type": "VEC3",
            "max": [
                1.0,
                0.0,
                1.0
            ],
            "min": [
                -1.0,
                0.0,
                -1.0
            ]
        },
        {
            "bufferView": 2,
            "byteOffset": 0,
            "componentType": 5126,
            "count": 32,
            "type": "VEC2",
            "max": [
                0.9907407164573669,
                0.990384578704834
            ],
            "min": [
                0.009259259328246117,
                0.00961536169052124
            ]
        },
        {
            "bufferView": 3,
            "byteOffset": 0,
            "componentType": 5123,
            "count": 48,
            "type": "SCALAR",
            "max": [
                31.0
            ],
            "min": [
                0.0
            ]
        }
    ],
    "buffers": [
        {
            "byteLength": 1120,
            "uri": "moswal05_1.bin"
        }
    ],
    "bufferViews": [
        {
            "buffer": 0,
            "byteOffset": 0,
            "byteLength": 384,
            "target": 34962
        },
        {
            "buffer": 0,
            "byteOffset": 384,
            "byteLength": 384,
            "target": 34962
        },
        {
            "buffer": 0,
            "byteOffset": 768,
            "byteLength": 256,
            "target": 34962
        },
        {
            "buffer": 0,
            "byteOffset": 1024,
            "byteLength": 96,
            "target": 34963
        }
    ],
    "materials": [
        {
            "name": "MOSWAL05",
            "pbrMetallicRoughness": {
                "metallicFactor": 0.0
            }
        }
    ],
    "meshes": [
        {
            "name": "MOSWAL05_1",
            "primitives": [
                {
                    "mode": 4,
                    "material": 0,
                    "indices": 3,
                    "attributes": {
                        "POSITION": 0,
                        "NORMAL": 1,
                        "TEXCOORD_0": 2
                    }
                }
            ]
        }
    ],
    "nodes": [
        {
            "name": "RootNode",
            "children": [
                1
            ]
        },
        {
            "name": "MOSWAL05_1",
            "mesh": 0
        }
    ],
    "scenes": [
        {
            "nodes": [
                0
            ]
        }
    ],
    "scene": 0
}