# WaveFront *.obj file (generated by Cinema 4D)

mtllib ./F_BASHXL_2.mtl

v -5344 464 10016
v -5424 464 9856
v -5616 464 9984
v -5840 464 9984
v -5616 464 9856
v -5520 464 10144
v -5344 464 10144
v -5520 464 10176
v -5344 464 10176
v -5344 464 10272
v -5344 464 10464
v -5344 464 10368
v -5728 464 10464
v -5840 464 10208
v -5360 464 10352
v -5360 464 10288
v -5728 464 10208
# 17 vertices

vn 0 1 0
vn 0 0 0
vn 0 0 -1
vn -0.00787377171218 0.99996900558472 0
vn 0 0 1
vn -0.70711761713028 -0.00002157951712 -0.70709598064423
vn -0.00003063819531 1 0.00003063819531
vn -0.00781226158142 0.99996948242188 0
# 8 normals

vt 0.45266112685204 0.78433740139008 0
vt 0.45266112685204 0.99112814664841 0
vt 0.83137202262878 0.99112814664841 0
vt 0.58004033565521 0.92207050323486 0
vt 0.9891682267189 0.73263967037201 0
vt 0.58004128932953 0.92207092046738 0
vt 0.9891682267189 0.52584886550903 0
vt 0.58004212379456 0.92207092046738 0
vt 0.64201658964157 0.52584886550903 0
vt 0.58004212379456 0.9220700263977 0
vt 0.64201658964157 0.47415113449097 0
vt 0.9891682267189 0.47415113449097 0
vt 0.9891682267189 0.31905806064606 0
vt 0.58004289865494 0.92207092046738 0
vt 0.95760899782181 0.29320919513702 0
vt 0.58004301786423 0.92207080125809 0
vt 0.95760899782181 0.18981385231018 0
vt 0.9891682267189 0.16396498680115 0
vt 0.9891682267189 0.00887191295624 0
vt 0.58004415035248 0.92207092046738 0
vt 0.23174645006657 0.00887191295624 0
vt 0.58004415035248 0.9220689535141 0
vt 0.23174645006657 0.42245352268219 0
vt 0.58004254102707 0.9220689535141 0
vt 0.01083176396787 0.42245352268219 0
vt 0.01083176396787 0.78433740139008 0
vt 0.58004111051559 0.92206835746765 0
vt 0.58004111051559 0.9220694899559 0
vt 0.58004230260849 0.9220700263977 0
vt 0.58004343509674 0.92207080125809 0
# 30 texture coordinates

o F_BASHXL_2
usemtl F_BASHXL
f 2/3/1 5/2/1 3/1/1
f 1/5/1 2/3/1 3/1/1
f 7/7/1 1/5/1 3/1/1
f 6/9/1 7/7/1 3/1/1
f 10/13/1 9/12/1 8/11/1
f 16/15/1 10/13/1 8/11/1
f 11/19/1 12/18/1 15/17/1
f 13/21/1 11/19/1 15/17/1
f 17/23/1 13/21/1 15/17/1
f 4/26/1 14/25/1 17/23/1
f 3/1/1 4/26/1 17/23/1
f 6/9/1 3/1/1 17/23/1
f 8/11/1 6/9/1 17/23/1
f 15/17/1 16/15/1 8/11/1
f 17/23/1 15/17/1 8/11/1

