# WaveFront *.obj file (generated by Cinema 4D)

mtllib ./SUPWOD01_2.mtl

v -4608 400 9776
v -4608 400 9584
v -4608 304 9776
v -4608 304 9584
v -4576 400 9584
v -4576 400 9776
v -4576 304 9584
v -4576 304 9776
v -4592 304 9776
v -4592 400 9776
v -4592 304 9584
v -4592 400 9584
# 12 vertices

vn 0 0 -1
vn -0.96048402786255 0.27833503484726 0
vn 0 0 0
vn 0 0 1
vn -0.00003053435285 -0.00003053435285 -1
vn -0.05862103775144 -0.05862103775144 0.99655765295029
# 6 normals

vt 0.01167546957731 0.00803375244141 0
vt 0.01167546957731 0.99196624755859 0
vt 0.25 0.99196624755859 0
vt 0.09111697971821 0.66398876905441 0
vt 0.25 0.00803375244141 0
vt 0.48832452297211 0.99196624755859 0
vt 0.51167547702789 0.00803375244141 0
vt 0.51167547702789 0.99196624755859 0
vt 0.75 0.99196624755859 0
vt 0.59111696481705 0.66398876905441 0
vt 0.75 0.00803375244141 0
vt 0.98832452297211 0.99196624755859 0
vt 0.48832452297211 0.00803375244141 0
vt 0.98832452297211 0.00803375244141 0
# 14 texture coordinates

o SUPWOD01.1
usemtl SUPWOD01
f 10/3/1 6/2/1 8/1/1
f 1/6/1 10/3/1 9/5/1
f 12/9/4 2/8/4 4/7/4
f 5/12/4 12/9/4 11/11/4
f 9/5/1 10/3/1 8/1/1
f 3/13/1 1/6/1 9/5/1
f 11/11/4 12/9/4 4/7/4
f 7/14/4 5/12/4 11/11/4

