# WaveFront *.obj file (generated by Cinema 4D)

mtllib ./F_DECK_3.mtl

v -5040 432 10608
v -5040 432 10544
v -5296 432 10544
v -5296 432 10608
v -5040 432 10480
v -5296 432 10480
v -5040 432 10416
v -5296 432 10416
v -5344 432 9136
v -5088 432 9136
v -5296 432 10016
v -5296 432 10352
v -5040 432 10352
v -5040 432 10016
v -5088 432 9920
v -5344 432 9920
v -5200 432 9168
v -5200 432 9200
v -5232 432 9168
v -5232 432 9200
v -5280 432 9168
v -5280 432 9200
v -5312 432 9168
v -5312 432 9200
v -5120 432 9168
v -5120 432 9200
v -5152 432 9168
v -5152 432 9200
v -5344 432 9200
# 29 vertices

vn 0 -1 0
vn 0 0 0
vn 0.99999243021011 0.00389102124609 0
vn 0.64453947544098 0.76457101106644 0
vn -0.99841767549515 0.05623262375593 0
# 5 normals

vt 0.82014721632004 0.95239585638046 0
vt 0.14441718161106 0.95239585638046 0
vt 0.14441718161106 0.99548119306564 0
vt 0.36967244744301 0.96629077196121 0
vt 0.82014721632004 0.90931051969528 0
vt 0.14441718161106 0.90931051969528 0
vt 0.36978617310524 0.96629077196121 0
vt 0.82014721632004 0.86622524261475 0
vt 0.14441718161106 0.86622524261475 0
vt 0.36989989876747 0.96629077196121 0
vt 0.01771779172122 0.04760420322418 0
vt 0.01771779172122 0.53231400251389 0
vt 0.60898160934448 0.04760420322418 0
vt 0.37217444181442 0.96660351753235 0
vt 0.98228222131729 0.99548119306564 0
vt 0.98228222131729 0.97393852472305 0
vt 0.8555828332901 0.99548119306564 0
vt 0.94006103277206 0.98763900995255 0
vt 0.8555828332901 0.97393852472305 0
vt 0.94011789560318 0.98763900995255 0
vt 0.98228222131729 0.96490085124969 0
vt 0.98228222131729 0.9433581829071 0
vt 0.8555828332901 0.96490085124969 0
vt 0.94014173746109 0.9570586681366 0
vt 0.8555828332901 0.9433581829071 0
vt 0.94019860029221 0.9570586681366 0
vt 0.10218404978514 0.04760420322418 0
vt 0.10218404978514 0.02606153488159 0
vt 0.37217444181442 0.96620547771454 0
vt 0.01771779172122 0.004518866539 0
vt 0.37228816747665 0.96620547771454 0
vt 0.82014721632004 0.59694200754166 0
vt 0.69344782829285 0.53231400251389 0
vt 0.82014721632004 0.82313990592957 0
vt 0.37012737989426 0.96674573421478 0
vt 0.14441718161106 0.82313990592957 0
vt 0.37012737989426 0.96629077196121 0
vt 0.14441718161106 0.59694200754166 0
vt 0.37072443962097 0.96629077196121 0
vt 0.60898160934448 0.02606153488159 0
vt 0.69344782829285 0.004518866539 0
vt 0.37228816747665 0.96666038036346 0
vt 0.37001365423203 0.96629077196121 0
vt 0.82014721632004 0.99548119306564 0
vt 0.36967244744301 0.96674573421478 0
vt 0.36978617310524 0.96674573421478 0
vt 0.36989989876747 0.96674573421478 0
vt 0.37001365423203 0.96674573421478 0
# 48 texture coordinates

o F_DECK_3
usemtl F_DECK
f 4/3/1 3/2/1 2/1/1
f 3/2/1 6/6/1 5/5/1
f 6/6/1 8/9/1 7/8/1
f 26/13/1 16/12/1 29/11/1
f 18/17/1 27/16/1 28/15/1
f 17/19/1 27/16/1 18/17/1
f 22/23/1 19/22/1 20/21/1
f 21/25/1 19/22/1 22/23/1
f 29/11/1 23/28/1 24/27/1
f 9/30/1 23/28/1 29/11/1
f 13/34/1 15/33/1 14/32/1
f 12/36/1 15/33/1 13/34/1
f 11/38/1 15/33/1 12/36/1
f 26/13/1 11/38/1 16/12/1
f 9/30/1 25/40/1 23/28/1
f 10/41/1 25/40/1 9/30/1
f 11/38/1 10/41/1 15/33/1
f 26/13/1 10/41/1 11/38/1
f 10/41/1 26/13/1 25/40/1
f 8/9/1 12/36/1 13/34/1
f 1/44/1 4/3/1 2/1/1
f 2/1/1 3/2/1 5/5/1
f 5/5/1 6/6/1 7/8/1
f 7/8/1 8/9/1 13/34/1

