{
    "asset": {
        "version": "2.0",
        "generator": "Open Asset Import Library (assimp v3.1.31193554)"
    },
    "accessors": [
        {
            "bufferView": 0,
            "byteOffset": 0,
            "componentType": 5126,
            "count": 35,
            "type": "VEC3",
            "max": [
                -4368.0,
                240.00001525878907,
                10528.0009765625
            ],
            "min": [
                -5024.0,
                240.00001525878907,
                9856.0009765625
            ]
        },
        {
            "bufferView": 1,
            "byteOffset": 0,
            "componentType": 5126,
            "count": 35,
            "type": "VEC3",
            "max": [
                0.0,
                1.0,
                0.0
            ],
            "min": [
                0.0,
                1.0,
                0.0
            ]
        },
        {
            "bufferView": 2,
            "byteOffset": 0,
            "componentType": 5126,
            "count": 35,
            "type": "VEC2",
            "max": [
                0.9901050329208374,
                0.9909003973007202
            ],
            "min": [
                0.009894958697259426,
                0.00909954309463501
            ]
        },
        {
            "bufferView": 3,
            "byteOffset": 0,
            "componentType": 5123,
            "count": 87,
            "type": "SCALAR",
            "max": [
                34.0
            ],
            "min": [
                0.0
            ]
        }
    ],
    "buffers": [
        {
            "byteLength": 1294,
            "uri": "concrp_3.bin"
        }
    ],
    "bufferViews": [
        {
            "buffer": 0,
            "byteOffset": 0,
            "byteLength": 420,
            "target": 34962
        },
        {
            "buffer": 0,
            "byteOffset": 420,
            "byteLength": 420,
            "target": 34962
        },
        {
            "buffer": 0,
            "byteOffset": 840,
            "byteLength": 280,
            "target": 34962
        },
        {
            "buffer": 0,
            "byteOffset": 1120,
            "byteLength": 174,
            "target": 34963
        }
    ],
    "materials": [
        {
            "name": "F_CONCRP",
            "pbrMetallicRoughness": {
                "metallicFactor": 0.0
            }
        }
    ],
    "meshes": [
        {
            "name": "F_CONCRP_3",
            "primitives": [
                {
                    "mode": 4,
                    "material": 0,
                    "indices": 3,
                    "attributes": {
                        "POSITION": 0,
                        "NORMAL": 1,
                        "TEXCOORD_0": 2
                    }
                }
            ]
        }
    ],
    "nodes": [
        {
            "name": "RootNode",
            "children": [
                1
            ]
        },
        {
            "name": "F_CONCRP_3",
            "mesh": 0
        }
    ],
    "scenes": [
        {
            "nodes": [
                0
            ]
        }
    ],
    "scene": 0
}