{
    "asset": {
        "version": "2.0",
        "generator": "Open Asset Import Library (assimp v3.1.31193554)"
    },
    "accessors": [
        {
            "bufferView": 0,
            "byteOffset": 0,
            "componentType": 5126,
            "count": 85,
            "type": "VEC3",
            "max": [
                -1312.000244140625,
                -256.0,
                12208.0
            ],
            "min": [
                -5760.0,
                -256.0,
                10240.0
            ]
        },
        {
            "bufferView": 1,
            "byteOffset": 0,
            "componentType": 5126,
            "count": 85,
            "type": "VEC3",
            "max": [
                0.0,
                1.0,
                0.0
            ],
            "min": [
                0.0,
                1.0,
                0.0
            ]
        },
        {
            "bufferView": 2,
            "byteOffset": 0,
            "componentType": 5126,
            "count": 85,
            "type": "VEC2",
            "max": [
                0.9889000058174133,
                0.9923723936080933
            ],
            "min": [
                0.011099990457296372,
                0.007627606391906738
            ]
        },
        {
            "bufferView": 3,
            "byteOffset": 0,
            "componentType": 5123,
            "count": 255,
            "type": "SCALAR",
            "max": [
                84.0
            ],
            "min": [
                0.0
            ]
        }
    ],
    "buffers": [
        {
            "byteLength": 3230,
            "uri": "water03_1.bin"
        }
    ],
    "bufferViews": [
        {
            "buffer": 0,
            "byteOffset": 0,
            "byteLength": 1020,
            "target": 34962
        },
        {
            "buffer": 0,
            "byteOffset": 1020,
            "byteLength": 1020,
            "target": 34962
        },
        {
            "buffer": 0,
            "byteOffset": 2040,
            "byteLength": 680,
            "target": 34962
        },
        {
            "buffer": 0,
            "byteOffset": 2720,
            "byteLength": 510,
            "target": 34963
        }
    ],
    "materials": [
        {
            "name": "water",
            "pbrMetallicRoughness": {
                "baseColorFactor": [
                    0.800000011920929,
                    0.800000011920929,
                    0.800000011920929,
                    1.0
                ],
                "metallicFactor": 0.0
            }
        }
    ],
    "meshes": [
        {
            "name": "F_WATR03_1",
            "primitives": [
                {
                    "mode": 4,
                    "material": 0,
                    "indices": 3,
                    "attributes": {
                        "POSITION": 0,
                        "NORMAL": 1,
                        "TEXCOORD_0": 2
                    }
                }
            ]
        }
    ],
    "nodes": [
        {
            "name": "RootNode",
            "children": [
                1
            ]
        },
        {
            "name": "F_WATR03_1",
            "mesh": 0
        }
    ],
    "scenes": [
        {
            "nodes": [
                0
            ]
        }
    ],
    "scene": 0
}