# WaveFront *.obj file (generated by Cinema 4D)

mtllib ./F_DECK_2.mtl

v -5328 320 10688
v -5328 320 10672
v -5296 320 10688
v -5024 320 10784
v -5040 320 10784
v -5040 320 10608
v -5296 320 10608
v -5024 320 11136
v -5040 320 11152
v -5248 320 11152
v -5280 320 11152
v -5488 320 11152
v -5504 320 11136
v -5504 320 10928
v -5504 320 10896
v -5504 320 10688
v -5488 320 10672
v -5280 320 11136
v -5248 320 11136
v -5488 320 10896
v -5488 320 10928
v -5040 320 11136
v -5488 320 11136
v -5488 320 10688
v -5456 320 10752
v -5464 320 10720
v -5432 320 10728
v -5152 320 11056
v -5088 320 11056
v -5472 320 10992
v -5344 320 10992
v -5472 320 11120
v -5344 320 11120
v -5344 320 11088
v -5088 320 11120
v -5152 320 11120
v -5152 320 11088
v -5504 320 10720
v -5504 320 11120
# 39 vertices

vn 0 -1 0
vn 0 0 0
vn 0.98573237657547 -0.14454586803913 -0.08624508231878
vn 0.30544942617416 0.95220828056335 0
vn -0.99901968240738 0.04426844790578 0
# 5 normals

vt 0.01040383800864 0.56573349237442 0
vt 0.04304358363152 0.56573349237442 0
vt 0.01040383800864 0.25389778614044 0
vt 0.02128375321627 0.46178829669952 0
vt 0.09200319647789 0.25389778614044 0
vt 0.10832306742668 0.31059527397156 0
vt 0.01040383800864 0.19720041751862 0
vt 0.04304358363152 0.19720041751862 0
vt 0.04304358363152 0.1688517332077 0
vt 0.36944103240967 0.1688517332077 0
vt 0.36944103240967 0.19720041751862 0
vt 0.43472051620483 0.19720041751862 0
vt 0.95695644617081 0.36729264259338 0
vt 0.98959618806839 0.36729264259338 0
vt 0.98959618806839 0.99096393585205 0
vt 0.95695644617081 0.99096393585205 0
vt 0.43472051620483 0.03738474845886 0
vt 0.43472051620483 0.00903606414795 0
vt 0.01040383800864 0.03738474845886 0
vt 0.29328161478043 0.02793526649475 0
vt 0.01040383800864 0.00903606414795 0
vt 0.87984484434128 0.03738474845886 0
vt 0.87984484434128 0.00903606414795 0
vt 0.4555281996727 0.03738474845886 0
vt 0.73840594291687 0.02793526649475 0
vt 0.4555281996727 0.00903606414795 0
vt 0.01040383800864 0.99096393585205 0
vt 0.04304358363152 0.99096393585205 0
vt 0.01040383800864 0.96261525154114 0
vt 0.85903716087341 0.96261525154114 0
vt 0.72847819328308 0.90591782331467 0
vt 0.72847819328308 0.84922045469284 0
vt 0.33680129051208 0.90591782331467 0
vt 0.33680129051208 0.73582565784454 0
vt 0.0756833255291 0.96261525154114 0
vt 0.0756833255291 0.73582565784454 0
vt 0.01040383800864 0.62243086099625 0
vt 0.04304358363152 0.62243086099625 0
vt 0.15728268027306 0.2680721282959 0
vt 0.85903716087341 0.84922045469284 0
vt 0.95695644617081 0.05545699596405 0
vt 0.43472051620483 0.05545699596405 0
vt 0.33680129051208 0.96261525154114 0
vt 0.72847819328308 0.96261525154114 0
# 44 texture coordinates

o F_DECK_2
usemtl F_DECK
f 38/3/1 20/2/1 15/1/1
f 26/5/1 20/2/1 38/3/1
f 25/6/1 20/2/1 26/5/1
f 16/7/1 26/5/1 38/3/1
f 24/8/1 26/5/1 16/7/1
f 2/10/1 24/8/1 17/9/1
f 1/11/1 24/8/1 2/10/1
f 5/13/1 1/11/1 3/12/1
f 8/15/1 5/13/1 4/14/1
f 22/16/1 5/13/1 8/15/1
f 10/19/1 22/18/1 9/17/1
f 19/21/1 22/18/1 10/19/1
f 12/24/1 18/23/1 11/22/1
f 23/26/1 18/23/1 12/24/1
f 39/29/1 23/28/1 13/27/1
f 35/30/1 23/28/1 39/29/1
f 34/33/1 28/32/1 37/31/1
f 31/34/1 28/32/1 34/33/1
f 39/29/1 30/36/1 32/35/1
f 14/37/1 30/36/1 39/29/1
f 21/38/1 30/36/1 14/37/1
f 25/6/1 21/38/1 20/2/1
f 27/39/1 21/38/1 25/6/1
f 24/8/1 27/39/1 26/5/1
f 1/11/1 27/39/1 24/8/1
f 5/13/1 27/39/1 1/11/1
f 35/30/1 22/16/1 23/28/1
f 31/34/1 29/40/1 28/32/1
f 21/38/1 31/34/1 30/36/1
f 27/39/1 31/34/1 21/38/1
f 5/13/1 31/34/1 27/39/1
f 35/30/1 5/13/1 22/16/1
f 29/40/1 5/13/1 35/30/1
f 5/13/1 29/40/1 31/34/1
f 3/12/1 7/42/1 6/41/1
f 33/43/1 34/33/1 37/31/1
f 5/13/1 3/12/1 6/41/1
f 36/44/1 33/43/1 37/31/1

