# WaveFront *.obj file (generated by Cinema 4D)

mtllib ./F_BRKTOP_1.mtl

v -5328 64 10688
v -5328 64 10672
v -5296 64 10688
v -5024 64 10784
v -5040 64 10784
v -5040 64 10608
v -5296 64 10608
v -5024 64 11136
v -5040 64 11152
v -5248 64 11152
v -5280 64 11152
v -5488 64 11152
v -5504 64 11136
v -5504 64 10928
v -5504 64 10896
v -5504 64 10688
v -5488 64 10672
v -5280 64 11136
v -5248 64 11136
v -5488 64 10896
v -5488 64 10928
v -5040 64 11136
v -5488 64 11136
v -5488 64 10688
v -5456 64 10752
v -5464 64 10720
v -5432 64 10728
v -5152 64 11056
v -5088 64 11056
v -5472 64 10992
v -5344 64 10992
v -5472 64 11120
v -5344 64 11088
v -5152 64 11088
v -5088 64 11120
v -5504 64 10720
v -5504 64 11120
# 37 vertices

vn 0 1 0
vn 0 0.83040916919708 -0.55715399980545
vn 0 0.24099862575531 -0.97052544355392
vn 0 -0.44495263695717 -0.89555412530899
vn 0 -0.8932136297226 -0.44963252544403
vn -0.57659554481506 -0.57885676622391 0.57659554481506
vn 0 0 0
vn 0.99981766939163 0.01909408159554 0
vn 0.99983721971512 0.01804392598569 0
# 9 normals

vt 0.51931262016296 0.04304361343384 0
vt 0.51931262016296 0.01040387153625 0
vt 0.20747695863247 0.01040387153625 0
vt 0.20747695863247 0.09200322628021 0
vt 0.26417434215546 0.108323097229 0
vt 0.15077956020832 0.01040387153625 0
vt 0.15077956020832 0.04304361343384 0
vt 0.12243086099625 0.04304361343384 0
vt 0.12243086099625 0.36944103240967 0
vt 0.15077956020832 0.36944103240967 0
vt 0.15077956020832 0.43472051620483 0
vt 0.32087174057961 0.95695638656616 0
vt 0.32087174057961 0.98959618806839 0
vt 0.94454306364059 0.98959618806839 0
vt 0.94454306364059 0.95695638656616 0
vt 0.96261525154114 0.98959618806839 0
vt 0.99096393585205 0.98959618806839 0
vt 0.99096393585205 0.56527948379517 0
vt 0.96261525154114 0.56527948379517 0
vt 0.96261525154114 0.5444718003273 0
vt 0.99096393585205 0.5444718003273 0
vt 0.99096393585205 0.12015521526337 0
vt 0.96261525154114 0.12015521526337 0
vt 0.94454306364059 0.04304361343384 0
vt 0.94454306364059 0.01040387153625 0
vt 0.91619437932968 0.01040387153625 0
vt 0.91619437932968 0.85903716087341 0
vt 0.80279958248138 0.72847825288773 0
vt 0.85949695110321 0.72847825288773 0
vt 0.85949695110321 0.33680129051208 0
vt 0.68940478563309 0.33680129051208 0
vt 0.68940478563309 0.07568335533142 0
vt 0.91619437932968 0.07568335533142 0
vt 0.57600998878479 0.01040387153625 0
vt 0.57600998878479 0.04304361343384 0
vt 0.22165130078793 0.15728271007538 0
vt 0.80279958248138 0.85903716087341 0
vt 0.00903607718647 0.43472051620483 0
vt 0.00903607718647 0.95695638656616 0
# 39 texture coordinates

o F_BRKTOP.1
usemtl F_BRKTOP
f 36/3/1 15/2/1 20/1/1
f 26/4/1 36/3/1 20/1/1
f 25/5/1 26/4/1 20/1/1
f 16/6/1 36/3/1 26/4/1
f 24/7/1 16/6/1 26/4/1
f 2/9/1 17/8/1 24/7/1
f 1/10/1 2/9/1 24/7/1
f 5/12/1 3/11/1 1/10/1
f 8/14/1 4/13/1 5/12/1
f 22/15/1 8/14/1 5/12/1
f 10/18/1 9/17/1 22/16/1
f 19/19/1 10/18/1 22/16/1
f 12/22/1 11/21/1 18/20/1
f 23/23/1 12/22/1 18/20/1
f 37/26/1 13/25/1 23/24/1
f 35/27/1 37/26/1 23/24/1
f 33/30/1 34/29/1 28/28/1
f 31/31/1 33/30/1 28/28/1
f 37/26/1 32/33/1 30/32/1
f 14/34/1 37/26/1 30/32/1
f 21/35/1 14/34/1 30/32/1
f 25/5/1 20/1/1 21/35/1
f 27/36/1 25/5/1 21/35/1
f 24/7/1 26/4/1 27/36/1
f 1/10/1 24/7/1 27/36/1
f 5/12/1 1/10/1 27/36/1
f 35/27/1 23/24/1 22/15/1
f 31/31/1 28/28/1 29/37/1
f 21/35/1 30/32/1 31/31/1
f 27/36/1 21/35/1 31/31/1
f 5/12/1 27/36/1 31/31/1
f 35/27/1 22/15/1 5/12/1
f 29/37/1 35/27/1 5/12/1
f 5/12/1 31/31/1 29/37/1
f 5/12/1 6/39/1 7/38/1
f 3/11/1 5/12/1 7/38/1

