# WaveFront *.obj file (generated by Cinema 4D)

mtllib ./F_GENTAN.1.mtl

v -4240 496 9792
v -4240 496 9824
v -4464 496 9784
v -4272 496 9784
v -4496 496 9824
v -4496 496 9792
v -4496 496 9024
v -4496 496 8992
v -4272 496 9032
v -4464 496 9032
v -4240 496 8992
v -4240 496 9024
v -4576 496 8992
v -4576 496 9824
v -4096 496 9056
v -4160 496 8992
v -4160 496 9824
v -4096 496 9760
v -4224 496 9216
v -4352 496 9216
v -4224 496 9600
v -4352 496 9600
v -4576 496 9600
# 23 vertices

vn 0 -1 0
vn 0 0.45150747895241 0.89226734638214
vn 0 0.60459542274475 0.7965327501297
vn 0 0.40485939383507 0.91437894105911
vn 0 -0.83508026599884 0.5501281619072
vn 0 -0.87076979875565 0.49169093370438
vn 0 -0.82407456636429 0.56648129224777
vn 0 -0.78448057174683 0.62015336751938
vn 0 0.24528226256371 0.96945172548294
vn 0 0 1
vn 0 -0.7113054394722 0.70288300514221
# 11 normals

vt 0.01282783877105 0.00748193264008 0
vt 0.01282783877105 0.7273160815239 0
vt 0.175218552351 0.00748193264008 0
vt 0.06709427386522 0.24653458595276 0
vt 0.175218552351 0.0453679561615 0
vt 0.69486886262894 0.00748193264008 0
vt 0.69486886262894 0.0453679561615 0
vt 0.85725957155228 0.00748193264008 0
vt 0.98717218637466 0.08325397968292 0
vt 0.98717218637466 0.91674607992172 0
vt 0.85725957155228 0.99251812696457 0
vt 0.69486886262894 0.99251812696457 0
vt 0.69486886262894 0.95463210344315 0
vt 0.175218552351 0.99251812696457 0
vt 0.175218552351 0.95463210344315 0
vt 0.01282783877105 0.99251812696457 0
vt 0.72734701633453 0.7273160815239 0
vt 0.4675218462944 0.7273160815239 0
vt 0.4675218462944 0.27268397808075 0
vt 0.24017484486103 0.05483937263489 0
vt 0.24017484486103 0.94516062736511 0
vt 0.72734701633453 0.27268397808075 0
vt 0.62991255521774 0.05483937263489 0
vt 0.62991255521774 0.94516062736511 0
# 24 texture coordinates

o F_GENTAN.1
usemtl F_GENTAN
f 8/3/1 23/2/1 13/1/1
f 7/5/1 23/2/1 8/3/1
f 16/8/1 12/7/1 11/6/1
f 15/9/1 12/7/1 16/8/1
f 18/10/1 12/7/1 15/9/1
f 17/11/1 12/7/1 18/10/1
f 1/13/1 17/11/1 2/12/1
f 14/16/1 6/15/1 5/14/1
f 23/2/1 6/15/1 14/16/1
f 21/17/1 6/15/1 23/2/1
f 23/2/1 20/19/1 22/18/1
f 7/5/1 20/19/1 23/2/1
f 10/20/1 20/19/1 7/5/1
f 21/17/1 3/21/1 6/15/1
f 10/20/1 19/22/1 20/19/1
f 9/23/1 19/22/1 10/20/1
f 21/17/1 4/24/1 3/21/1
f 12/7/1 19/22/1 9/23/1
f 21/17/1 1/13/1 4/24/1
f 17/11/1 19/22/1 12/7/1
f 21/17/1 17/11/1 1/13/1
f 17/11/1 21/17/1 19/22/1

