# WaveFront *.obj file (generated by Cinema 4D)

mtllib ./F_BASHXL.1.mtl

v -5008 240 9136
v -5424 240 9136
v -5840 240 9312
v -5776 240 9312
v -5840 240 8944
v -4608 240 8944
v -4688 240 9824
v -4608 240 9824
v -4608 240 9312
v -4608 240 9504
v -5008 240 9824
v -4816 240 9824
v -4608 240 9280
v -4608 240 9536
v -5296 224 10016
v -5296 224 10352
v -5040 224 10352
v -5040 224 10016
v -5088 224 9920
v -5088 224 9136
v -5344 224 9136
v -5344 224 9920
v -5616 240 9472
v -5424 240 9472
v -4816 240 9840
v -4688 240 9840
v -5200 224 9168
v -5200 224 9200
v -5232 224 9168
v -5232 224 9200
v -5280 224 9168
v -5280 224 9200
v -5312 224 9168
v -5312 224 9200
v -5120 224 9168
v -5120 224 9200
v -5152 224 9168
v -5152 224 9200
v -4640 240 9504
v -4640 240 9536
v -4640 240 9280
v -4640 240 9312
v -5344 224 9200
# 43 vertices

vn 0 1 0
vn 0 0.83040916919708 -0.55715399980545
vn 0 0.24099862575531 -0.97052544355392
vn 0 -0.44495263695717 -0.89555412530899
vn 0 -0.8932136297226 -0.44963252544403
vn -0.57659554481506 -0.57885676622391 0.57659554481506
vn 0 0 0
# 7 normals

vt 0.00975971762091 0.99236053228378 0
vt 0.28068196773529 0.99236053228378 0
vt 0.28068196773529 0.97216385602951 0
vt 0.73883748054504 0.97216385602951 0
vt 0.73883748054504 0.99236053228378 0
vt 0.89365017414093 0.99236053228378 0
vt 0.89365017414093 0.97216385602951 0
vt 0.48709893226624 0.97216385602951 0
vt 0.48709893226624 0.99236053228378 0
vt 0.71931803226471 0.99236053228378 0
vt 0.71931803226471 0.73990166187286 0
vt 0.16457243263721 0.73990166187286 0
vt 0.16457243263721 0.47734439373016 0
vt 0.30648410320282 0.2551805973053 0
vt 0.30648410320282 0.21478712558746 0
vt 0.00975971762091 0.21478712558746 0
vt 0.64191168546677 0.00763952732086 0
vt 0.06136395782232 0.00763952732086 0
vt 0.06136395782232 0.14901649951935 0
vt 0.73883748054504 0.86081916093826 0
vt 0.76463955640793 0.86081916093826 0
vt 0.76463955640793 0.83052408695221 0
vt 0.73883748054504 0.83052408695221 0
vt 0.73883748054504 0.81524515151978 0
vt 0.76463955640793 0.81524515151978 0
vt 0.76463955640793 0.78495013713837 0
vt 0.73883748054504 0.78495013713837 0
vt 0.03556183725595 0.02783620357513 0
vt 0.06136395782232 0.02783620357513 0
vt 0.00975971762091 0.00763952732086 0
vt 0.64191168546677 0.16921317577362 0
vt 0.71931803226471 0.19950830936432 0
vt 0.99024027585983 0.19950830936432 0
vt 0.99024027585983 0.03793454170227 0
vt 0.71931803226471 0.03793454170227 0
vt 0.03556183725595 0.14901649951935 0
vt 0.00975971762091 0.16921317577362 0
vt 0.4354946911335 0.47734439373016 0
vt 0.75173848867416 0.87609803676605 0
vt 0.73883748054504 0.87609803676605 0
vt 0.73883748054504 0.95688492059708 0
vt 0.4354946911335 0.35616409778595 0
vt 0.75173848867416 0.95688492059708 0
# 43 texture coordinates

o F_BASHXL.1
usemtl F_BASHXL
f 41/3/1 13/2/1 6/1/1
f 10/6/1 9/5/1 42/4/1
f 39/7/1 10/6/1 42/4/1
f 8/10/1 14/9/1 40/8/1
f 11/11/1 8/10/1 40/8/1
f 1/12/1 11/11/1 40/8/1
f 3/15/1 4/14/1 2/13/1
f 5/16/1 3/15/1 2/13/1
f 1/12/1 40/8/1 41/3/1
f 5/16/1 2/13/1 1/12/1
f 6/1/1 5/16/1 1/12/1
f 1/12/1 41/3/1 6/1/1
f 36/19/1 43/18/1 22/17/1
f 28/22/1 38/21/1 37/20/1
f 27/23/1 28/22/1 37/20/1
f 32/26/1 30/25/1 29/24/1
f 31/27/1 32/26/1 29/24/1
f 43/18/1 34/29/1 33/28/1
f 21/30/1 43/18/1 33/28/1
f 17/33/1 18/32/1 19/31/1
f 16/34/1 17/33/1 19/31/1
f 15/35/1 16/34/1 19/31/1
f 36/19/1 22/17/1 15/35/1
f 21/30/1 33/28/1 35/36/1
f 20/37/1 21/30/1 35/36/1
f 15/35/1 19/31/1 20/37/1
f 36/19/1 15/35/1 20/37/1
f 20/37/1 35/36/1 36/19/1
f 24/38/1 2/13/1 4/14/1
f 7/41/1 12/40/1 25/39/1
f 23/42/1 24/38/1 4/14/1
f 26/43/1 7/41/1 25/39/1

