{
    "asset": {
        "version": "2.0",
        "generator": "Open Asset Import Library (assimp v3.1.31193554)"
    },
    "accessors": [
        {
            "bufferView": 0,
            "byteOffset": 0,
            "componentType": 5126,
            "count": 9,
            "type": "VEC3",
            "max": [
                -4351.99951171875,
                431.99993896484377,
                10751.9990234375
            ],
            "min": [
                -4735.99951171875,
                431.99993896484377,
                10367.9990234375
            ]
        },
        {
            "bufferView": 1,
            "byteOffset": 0,
            "componentType": 5126,
            "count": 9,
            "type": "VEC3",
            "max": [
                0.0,
                -1.0,
                0.0
            ],
            "min": [
                0.0,
                -1.0,
                0.0
            ]
        },
        {
            "bufferView": 2,
            "byteOffset": 0,
            "componentType": 5126,
            "count": 9,
            "type": "VEC2",
            "max": [
                0.9903810620307922,
                0.9903810024261475
            ],
            "min": [
                0.009618941694498062,
                0.009618937969207764
            ]
        },
        {
            "bufferView": 3,
            "byteOffset": 0,
            "componentType": 5123,
            "count": 24,
            "type": "SCALAR",
            "max": [
                8.0
            ],
            "min": [
                0.0
            ]
        }
    ],
    "buffers": [
        {
            "byteLength": 336,
            "uri": "deck_7.bin"
        }
    ],
    "bufferViews": [
        {
            "buffer": 0,
            "byteOffset": 0,
            "byteLength": 108,
            "target": 34962
        },
        {
            "buffer": 0,
            "byteOffset": 108,
            "byteLength": 108,
            "target": 34962
        },
        {
            "buffer": 0,
            "byteOffset": 216,
            "byteLength": 72,
            "target": 34962
        },
        {
            "buffer": 0,
            "byteOffset": 288,
            "byteLength": 48,
            "target": 34963
        }
    ],
    "materials": [
        {
            "name": "F_DECK",
            "pbrMetallicRoughness": {
                "metallicFactor": 0.0
            }
        }
    ],
    "meshes": [
        {
            "name": "F_DECK_1",
            "primitives": [
                {
                    "mode": 4,
                    "material": 0,
                    "indices": 3,
                    "attributes": {
                        "POSITION": 0,
                        "NORMAL": 1,
                        "TEXCOORD_0": 2
                    }
                }
            ]
        }
    ],
    "nodes": [
        {
            "name": "RootNode",
            "children": [
                1
            ]
        },
        {
            "name": "F_DECK_1",
            "mesh": 0
        }
    ],
    "scenes": [
        {
            "nodes": [
                0
            ]
        }
    ],
    "scene": 0
}