# WaveFront *.obj file (generated by Cinema 4D)

mtllib ./LITE01_2.mtl

v -5456 64 10752
v -5456 320 10752
v -5432 320 10728
v -5432 64 10728
# 4 vertices

vn -0.70707553625107 0 0.70713806152344
vn 0.70728069543838 0 -0.70693284273148
vn 0 0 0
# 3 normals

vt 0.03065733425319 0.00304329395294 0
vt 0.03065733425319 0.9969567656517 0
vt 0.969342648983 0.9969567656517 0
vt 0.34355244040489 0.66565227508545 0
vt 0.969342648983 0.00304329395294 0
# 5 texture coordinates

o LITE01_2
usemtl LITE01
f 3/3/1 2/2/1 1/1/1
f 4/5/1 3/3/1 1/1/1

