# WaveFront *.obj file (generated by Cinema 4D)

mtllib ./GOYPIL02_1.mtl

v -4272 320 9784
v -4464 320 9784
v -4464 256 9784
v -4272 256 9784
# 4 vertices

vn 0 0 -1
vn 0.71207237243652 0 -0.70210605859756
vn 0 0 0
# 3 normals

vt 0.00969602167606 0.00991308689117 0
vt 0.00969602167606 0.99008703231812 0
vt 0.9903039932251 0.99008703231812 0
vt 0.34158718585968 0.64813452959061 0
vt 0.9903039932251 0.00991308689117 0
vt 0.33665084838867 0.64813452959061 0
# 6 texture coordinates

o GOYPIL02.1
usemtl GOYPIL02
f 2/3/1 1/2/1 4/1/1
f 3/5/1 2/3/1 4/1/1

