# WaveFront *.obj file (generated by Cinema 4D)

mtllib ./F_TKSCRN_2.mtl

v -5840 512 10464
v -5728 512 10464
v -5840 512 10208
v -5344 112 11088
v -5344 112 11120
v -5152 112 11088
v -5152 112 11120
v -5728 512 10208
# 8 vertices

vn 0 1 0
vn 0 0 0
vn 0 -1 0
vn 0 1 0
# 4 normals

vt 0.00972606614232 0.00935471057892 0
vt 0.00972606614232 0.99064534902573 0
vt 0.99027395248413 0.99064534902573 0
vt 0.00952165853232 0.00967848300934 0
vt 0.00952165853232 0.99032157659531 0
vt 0.99047833681107 0.99032157659531 0
vt 0.99027395248413 0.00935471057892 0
vt 0.99047833681107 0.00967848300934 0
# 8 texture coordinates

o F_TKSCRN_2
usemtl tkscrn_2_1
f 7/3/1 6/2/1 4/1/1
f 2/6/1 8/5/1 3/4/1
f 5/7/4 7/3/4 4/1/4
f 1/8/4 2/6/4 3/4/4

