# WaveFront *.obj file (generated by Cinema 4D)

mtllib ./WALTEK14_2.mtl

v -5728 464 10464
v -5840 464 10208
v -5728 512 10464
v -5840 512 10208
v -5728 464 10208
v -5728 512 10208
# 6 vertices

vn 1 0 0
vn 0 0 0
vn 0 0 -1
vn 0 -1 0
vn 0 0 -1
# 5 normals

vt 0.00429294910282 0.02207446098328 0
vt 0.00429294910282 0.97792553901672 0
vt 0.9957070350647 0.97792553901672 0
vt 0.33476430177689 0.659308552742 0
vt 0.00646192999557 0.01482248306274 0
vt 0.00646192999557 0.9851775765419 0
vt 0.99353808164597 0.9851775765419 0
vt 0.33548730611801 0.66172587871552 0
vt 0.9957070350647 0.02207446098328 0
vt 0.99353808164597 0.01482248306274 0
# 10 texture coordinates

o WALTEK14_2
usemtl waltek14_2_1
f 6/3/1 3/2/1 1/1/1
f 5/9/1 6/3/1 1/1/1

usemtl waltek14_2_2
f 4/7/3 6/6/3 5/5/3
f 2/10/5 4/7/5 5/5/5

