{
    "asset": {
        "version": "2.0",
        "generator": "Open Asset Import Library (assimp v3.1.31193554)"
    },
    "accessors": [
        {
            "bufferView": 0,
            "byteOffset": 0,
            "componentType": 5126,
            "count": 57,
            "type": "VEC3",
            "max": [
                -5904.00048828125,
                704.0000610351563,
                11855.9990234375
            ],
            "min": [
                -6976.00048828125,
                704.0000610351563,
                10287.9990234375
            ]
        },
        {
            "bufferView": 1,
            "byteOffset": 0,
            "componentType": 5126,
            "count": 57,
            "type": "VEC3",
            "max": [
                0.0,
                -1.0,
                0.0
            ],
            "min": [
                0.0,
                -1.0,
                0.0
            ]
        },
        {
            "bufferView": 2,
            "byteOffset": 0,
            "componentType": 5126,
            "count": 57,
            "type": "VEC2",
            "max": [
                0.9895486831665039,
                0.9917895793914795
            ],
            "min": [
                0.010451303794980049,
                0.008210361003875733
            ]
        },
        {
            "bufferView": 3,
            "byteOffset": 0,
            "componentType": 5123,
            "count": 153,
            "type": "SCALAR",
            "max": [
                56.0
            ],
            "min": [
                0.0
            ]
        }
    ],
    "buffers": [
        {
            "byteLength": 2130,
            "uri": "upstairsceiling.bin"
        }
    ],
    "bufferViews": [
        {
            "buffer": 0,
            "byteOffset": 0,
            "byteLength": 684,
            "target": 34962
        },
        {
            "buffer": 0,
            "byteOffset": 684,
            "byteLength": 684,
            "target": 34962
        },
        {
            "buffer": 0,
            "byteOffset": 1368,
            "byteLength": 456,
            "target": 34962
        },
        {
            "buffer": 0,
            "byteOffset": 1824,
            "byteLength": 306,
            "target": 34963
        }
    ],
    "materials": [
        {
            "name": "F_WOOD01",
            "pbrMetallicRoughness": {
                "metallicFactor": 0.0
            }
        }
    ],
    "meshes": [
        {
            "name": "F_WOOD01_1",
            "primitives": [
                {
                    "mode": 4,
                    "material": 0,
                    "indices": 3,
                    "attributes": {
                        "POSITION": 0,
                        "NORMAL": 1,
                        "TEXCOORD_0": 2
                    }
                }
            ]
        }
    ],
    "nodes": [
        {
            "name": "RootNode",
            "children": [
                1
            ]
        },
        {
            "name": "F_WOOD01_1",
            "mesh": 0
        }
    ],
    "scenes": [
        {
            "nodes": [
                0
            ]
        }
    ],
    "scene": 0
}