# WaveFront *.obj file (generated by Cinema 4D)

mtllib ./F_DECK_1.mtl

v -5008 480 9136
v -5424 480 9136
v -5840 480 8944
v -5840 480 9312
v -5776 480 9312
v -4608 480 8944
v -4608 480 9824
v -4608 480 9312
v -4608 480 9504
v -5008 480 9824
v -4608 480 9280
v -4608 480 9536
v -4640 480 9504
v -4640 480 9536
v -4640 480 9280
v -4640 480 9312
# 16 vertices

vn 0 -1 0
vn 0 0 0
vn 0 -0.70710676908493 0.70710676908493
# 3 normals

vt 0.99166584014893 0.50219237804413 0
vt 0.99166584014893 0.20051348209381 0
vt 0.96612471342087 0.50219237804413 0
vt 0.98354947566986 0.40160238742828 0
vt 0.03387526422739 0.00937521457672 0
vt 0.00833418406546 0.00937521457672 0
vt 0.03387526422739 0.18176317214966 0
vt 0.02601465582848 0.06683039665222 0
vt 0.00833418406546 0.18176317214966 0
vt 0.02601465582848 0.06680738925934 0
vt 0.99166584014893 0.73204296827316 0
vt 0.96612471342087 0.73204296827316 0
vt 0.99166584014893 0.99062484502792 0
vt 0.98315960168838 0.40162527561188 0
vt 0.67240232229233 0.99062484502792 0
vt 0.98315960168838 0.40133857727051 0
vt 0.67240232229233 0.37290143966675 0
vt 0.98365265130997 0.40133857727051 0
vt 0.05941634625196 0.53092366456985 0
vt 0.3403682410717 0.37290143966675 0
vt 0.00833418406546 0.53092366456985 0
vt 0.98352652788162 0.40074241161346 0
vt 0.00833418406546 0.20051348209381 0
vt 0.98379021883011 0.40074241161346 0
vt 0.98379021883011 0.40162527561188 0
# 25 texture coordinates

o F_DECK_1
usemtl F_DECK
f 15/3/1 6/2/1 11/1/1
f 9/7/1 16/6/1 8/5/1
f 13/9/1 16/6/1 9/7/1
f 7/13/1 14/12/1 12/11/1
f 10/15/1 14/12/1 7/13/1
f 1/17/1 14/12/1 10/15/1
f 4/21/1 2/20/1 5/19/1
f 3/23/1 2/20/1 4/21/1
f 1/17/1 15/3/1 14/12/1
f 3/23/1 1/17/1 2/20/1
f 6/2/1 1/17/1 3/23/1
f 1/17/1 6/2/1 15/3/1

