{
    "asset": {
        "version": "2.0",
        "generator": "Open Asset Import Library (assimp v3.1.31193554)"
    },
    "accessors": [
        {
            "bufferView": 0,
            "byteOffset": 0,
            "componentType": 5126,
            "count": 10,
            "type": "VEC3",
            "max": [
                -5888.00048828125,
                80.0,
                12095.9990234375
            ],
            "min": [
                -5920.00048828125,
                -80.0,
                11935.9990234375
            ]
        },
        {
            "bufferView": 1,
            "byteOffset": 0,
            "componentType": 5126,
            "count": 10,
            "type": "VEC3",
            "max": [
                1.0,
                0.0,
                0.0
            ],
            "min": [
                0.0,
                -1.0,
                0.0
            ]
        },
        {
            "bufferView": 2,
            "byteOffset": 0,
            "componentType": 5126,
            "count": 10,
            "type": "VEC2",
            "max": [
                0.9945821166038513,
                0.9829851388931274
            ],
            "min": [
                0.005417875945568085,
                0.01701486110687256
            ]
        },
        {
            "bufferView": 3,
            "byteOffset": 0,
            "componentType": 5123,
            "count": 18,
            "type": "SCALAR",
            "max": [
                9.0
            ],
            "min": [
                0.0
            ]
        }
    ],
    "buffers": [
        {
            "byteLength": 356,
            "uri": "STAIR01_3.bin"
        }
    ],
    "bufferViews": [
        {
            "buffer": 0,
            "byteOffset": 0,
            "byteLength": 120,
            "target": 34962
        },
        {
            "buffer": 0,
            "byteOffset": 120,
            "byteLength": 120,
            "target": 34962
        },
        {
            "buffer": 0,
            "byteOffset": 240,
            "byteLength": 80,
            "target": 34962
        },
        {
            "buffer": 0,
            "byteOffset": 320,
            "byteLength": 36,
            "target": 34963
        }
    ],
    "materials": [
        {
            "name": "conc_simp",
            "pbrMetallicRoughness": {
                "baseColorFactor": [
                    0.800000011920929,
                    0.800000011920929,
                    0.800000011920929,
                    1.0
                ],
                "metallicFactor": 0.0
            }
        }
    ],
    "meshes": [
        {
            "name": "STAIR01_3",
            "primitives": [
                {
                    "mode": 4,
                    "material": 0,
                    "indices": 3,
                    "attributes": {
                        "POSITION": 0,
                        "NORMAL": 1,
                        "TEXCOORD_0": 2
                    }
                }
            ]
        }
    ],
    "nodes": [
        {
            "name": "RootNode",
            "children": [
                1
            ]
        },
        {
            "name": "STAIR01_3",
            "mesh": 0
        }
    ],
    "scenes": [
        {
            "nodes": [
                0
            ]
        }
    ],
    "scene": 0
}