{
    "asset": {
        "version": "2.0",
        "generator": "Open Asset Import Library (assimp v3.1.31193554)"
    },
    "accessors": [
        {
            "bufferView": 0,
            "byteOffset": 0,
            "componentType": 5126,
            "count": 8,
            "type": "VEC3",
            "max": [
                -4080.0,
                160.0,
                11056.0
            ],
            "min": [
                -4096.0,
                -63.99999237060547,
                10832.0
            ]
        },
        {
            "bufferView": 1,
            "byteOffset": 0,
            "componentType": 5126,
            "count": 8,
            "type": "VEC3",
            "max": [
                0.0,
                0.0,
                1.0
            ],
            "min": [
                0.0,
                0.0,
                -1.0
            ]
        },
        {
            "bufferView": 2,
            "byteOffset": 0,
            "componentType": 5126,
            "count": 8,
            "type": "VEC2",
            "max": [
                0.9905593395233154,
                0.9905593395233154
            ],
            "min": [
                0.009440682828426361,
                0.009440600872039795
            ]
        },
        {
            "bufferView": 3,
            "byteOffset": 0,
            "componentType": 5123,
            "count": 12,
            "type": "SCALAR",
            "max": [
                7.0
            ],
            "min": [
                0.0
            ]
        },
        {
            "bufferView": 4,
            "byteOffset": 0,
            "componentType": 5126,
            "count": 8,
            "type": "VEC3",
            "max": [
                -4080.0,
                160.0,
                11056.0
            ],
            "min": [
                -4096.0,
                -63.99999237060547,
                10832.0
            ]
        },
        {
            "bufferView": 5,
            "byteOffset": 0,
            "componentType": 5126,
            "count": 8,
            "type": "VEC3",
            "max": [
                0.0,
                1.0,
                0.0
            ],
            "min": [
                0.0,
                -1.0,
                0.0
            ]
        },
        {
            "bufferView": 6,
            "byteOffset": 0,
            "componentType": 5126,
            "count": 8,
            "type": "VEC2",
            "max": [
                0.9905592203140259,
                0.9905593395233154
            ],
            "min": [
                0.009440692141652108,
                0.00944066047668457
            ]
        },
        {
            "bufferView": 7,
            "byteOffset": 0,
            "componentType": 5123,
            "count": 12,
            "type": "SCALAR",
            "max": [
                7.0
            ],
            "min": [
                0.0
            ]
        }
    ],
    "buffers": [
        {
            "byteLength": 560,
            "uri": "SCAN01.bin"
        }
    ],
    "bufferViews": [
        {
            "buffer": 0,
            "byteOffset": 0,
            "byteLength": 96,
            "target": 34962
        },
        {
            "buffer": 0,
            "byteOffset": 96,
            "byteLength": 96,
            "target": 34962
        },
        {
            "buffer": 0,
            "byteOffset": 192,
            "byteLength": 64,
            "target": 34962
        },
        {
            "buffer": 0,
            "byteOffset": 256,
            "byteLength": 24,
            "target": 34963
        },
        {
            "buffer": 0,
            "byteOffset": 280,
            "byteLength": 96,
            "target": 34962
        },
        {
            "buffer": 0,
            "byteOffset": 376,
            "byteLength": 96,
            "target": 34962
        },
        {
            "buffer": 0,
            "byteOffset": 472,
            "byteLength": 64,
            "target": 34962
        },
        {
            "buffer": 0,
            "byteOffset": 536,
            "byteLength": 24,
            "target": 34963
        }
    ],
    "materials": [
        {
            "name": "SCAN01",
            "pbrMetallicRoughness": {
                "metallicFactor": 0.0
            }
        },
        {
            "name": "F_SCANR1",
            "pbrMetallicRoughness": {
                "metallicFactor": 0.0
            }
        }
    ],
    "meshes": [
        {
            "name": "SCAN01_1",
            "primitives": [
                {
                    "mode": 4,
                    "material": 0,
                    "indices": 3,
                    "attributes": {
                        "POSITION": 0,
                        "NORMAL": 1,
                        "TEXCOORD_0": 2
                    }
                },
                {
                    "mode": 4,
                    "material": 1,
                    "indices": 7,
                    "attributes": {
                        "POSITION": 4,
                        "NORMAL": 5,
                        "TEXCOORD_0": 6
                    }
                }
            ]
        }
    ],
    "nodes": [
        {
            "name": "RootNode",
            "children": [
                1
            ]
        },
        {
            "name": "SCAN01_1",
            "mesh": 0
        }
    ],
    "scenes": [
        {
            "nodes": [
                0
            ]
        }
    ],
    "scene": 0
}