{
    "asset": {
        "version": "2.0",
        "generator": "Open Asset Import Library (assimp v3.1.31193554)"
    },
    "accessors": [
        {
            "bufferView": 0,
            "byteOffset": 0,
            "componentType": 5126,
            "count": 8,
            "type": "VEC3",
            "max": [
                -5088.0,
                320.0,
                11056.0
            ],
            "min": [
                -5152.0,
                64.0,
                11056.0
            ]
        },
        {
            "bufferView": 1,
            "byteOffset": 0,
            "componentType": 5126,
            "count": 8,
            "type": "VEC3",
            "max": [
                0.0,
                0.0,
                -1.0
            ],
            "min": [
                0.0,
                0.0,
                -1.0
            ]
        },
        {
            "bufferView": 2,
            "byteOffset": 0,
            "componentType": 5126,
            "count": 8,
            "type": "VEC2",
            "max": [
                0.9807692170143127,
                0.9950494766235352
            ],
            "min": [
                0.01923076994717121,
                0.004950523376464844
            ]
        },
        {
            "bufferView": 3,
            "byteOffset": 0,
            "componentType": 5123,
            "count": 24,
            "type": "SCALAR",
            "max": [
                7.0
            ],
            "min": [
                0.0
            ]
        },
        {
            "bufferView": 4,
            "byteOffset": 0,
            "componentType": 5126,
            "count": 4,
            "type": "VEC3",
            "max": [
                -5095.87255859375,
                171.89703369140626,
                11056.0
            ],
            "min": [
                -5143.96728515625,
                123.94389343261719,
                11056.0
            ]
        },
        {
            "bufferView": 5,
            "byteOffset": 0,
            "componentType": 5126,
            "count": 4,
            "type": "VEC3",
            "max": [
                0.0,
                0.0,
                -1.0
            ],
            "min": [
                0.0,
                0.0,
                -1.0
            ]
        },
        {
            "bufferView": 6,
            "byteOffset": 0,
            "componentType": 5126,
            "count": 4,
            "type": "VEC2",
            "max": [
                0.990210235118866,
                0.9901818037033081
            ],
            "min": [
                0.009789747186005116,
                0.00981813669204712
            ]
        },
        {
            "bufferView": 7,
            "byteOffset": 0,
            "componentType": 5123,
            "count": 6,
            "type": "SCALAR",
            "max": [
                3.0
            ],
            "min": [
                0.0
            ]
        },
        {
            "bufferView": 8,
            "byteOffset": 0,
            "componentType": 5126,
            "count": 4,
            "type": "VEC3",
            "max": [
                -5088.0,
                320.0,
                11120.0
            ],
            "min": [
                -5152.0,
                64.0,
                11120.0
            ]
        },
        {
            "bufferView": 9,
            "byteOffset": 0,
            "componentType": 5126,
            "count": 4,
            "type": "VEC3",
            "max": [
                0.0,
                0.0,
                1.0
            ],
            "min": [
                0.0,
                0.0,
                1.0
            ]
        },
        {
            "bufferView": 10,
            "byteOffset": 0,
            "componentType": 5126,
            "count": 4,
            "type": "VEC2",
            "max": [
                0.9807692170143127,
                0.9950494766235352
            ],
            "min": [
                0.01923076994717121,
                0.004950523376464844
            ]
        },
        {
            "bufferView": 11,
            "byteOffset": 0,
            "componentType": 5123,
            "count": 6,
            "type": "SCALAR",
            "max": [
                3.0
            ],
            "min": [
                0.0
            ]
        },
        {
            "bufferView": 12,
            "byteOffset": 0,
            "componentType": 5126,
            "count": 8,
            "type": "VEC3",
            "max": [
                -5152.0,
                320.0,
                11120.0
            ],
            "min": [
                -5152.0,
                64.0,
                11056.0
            ]
        },
        {
            "bufferView": 13,
            "byteOffset": 0,
            "componentType": 5126,
            "count": 8,
            "type": "VEC3",
            "max": [
                -1.0,
                0.0,
                0.0
            ],
            "min": [
                -1.0,
                0.0,
                0.0
            ]
        },
        {
            "bufferView": 14,
            "byteOffset": 0,
            "componentType": 5126,
            "count": 8,
            "type": "VEC2",
            "max": [
                0.9823079705238342,
                0.9952850341796875
            ],
            "min": [
                0.017692046239972116,
                0.0047149658203125
            ]
        },
        {
            "bufferView": 15,
            "byteOffset": 0,
            "componentType": 5123,
            "count": 12,
            "type": "SCALAR",
            "max": [
                7.0
            ],
            "min": [
                0.0
            ]
        },
        {
            "bufferView": 16,
            "byteOffset": 0,
            "componentType": 5126,
            "count": 4,
            "type": "VEC3",
            "max": [
                -5088.0,
                320.0,
                11120.0
            ],
            "min": [
                -5088.0,
                64.0,
                11056.0
            ]
        },
        {
            "bufferView": 17,
            "byteOffset": 0,
            "componentType": 5126,
            "count": 4,
            "type": "VEC3",
            "max": [
                1.0,
                0.0,
                0.0
            ],
            "min": [
                1.0,
                0.0,
                0.0
            ]
        },
        {
            "bufferView": 18,
            "byteOffset": 0,
            "componentType": 5126,
            "count": 4,
            "type": "VEC2",
            "max": [
                0.9807692170143127,
                0.9950494766235352
            ],
            "min": [
                0.01923076994717121,
                0.004950523376464844
            ]
        },
        {
            "bufferView": 19,
            "byteOffset": 0,
            "componentType": 5123,
            "count": 6,
            "type": "SCALAR",
            "max": [
                3.0
            ],
            "min": [
                0.0
            ]
        }
    ],
    "buffers": [
        {
            "byteLength": 1004,
            "uri": "swlite01_1.bin"
        }
    ],
    "bufferViews": [
        {
            "buffer": 0,
            "byteOffset": 0,
            "byteLength": 96,
            "target": 34962
        },
        {
            "buffer": 0,
            "byteOffset": 96,
            "byteLength": 96,
            "target": 34962
        },
        {
            "buffer": 0,
            "byteOffset": 192,
            "byteLength": 64,
            "target": 34962
        },
        {
            "buffer": 0,
            "byteOffset": 256,
            "byteLength": 48,
            "target": 34963
        },
        {
            "buffer": 0,
            "byteOffset": 304,
            "byteLength": 48,
            "target": 34962
        },
        {
            "buffer": 0,
            "byteOffset": 352,
            "byteLength": 48,
            "target": 34962
        },
        {
            "buffer": 0,
            "byteOffset": 400,
            "byteLength": 32,
            "target": 34962
        },
        {
            "buffer": 0,
            "byteOffset": 432,
            "byteLength": 12,
            "target": 34963
        },
        {
            "buffer": 0,
            "byteOffset": 444,
            "byteLength": 48,
            "target": 34962
        },
        {
            "buffer": 0,
            "byteOffset": 492,
            "byteLength": 48,
            "target": 34962
        },
        {
            "buffer": 0,
            "byteOffset": 540,
            "byteLength": 32,
            "target": 34962
        },
        {
            "buffer": 0,
            "byteOffset": 572,
            "byteLength": 12,
            "target": 34963
        },
        {
            "buffer": 0,
            "byteOffset": 584,
            "byteLength": 96,
            "target": 34962
        },
        {
            "buffer": 0,
            "byteOffset": 680,
            "byteLength": 96,
            "target": 34962
        },
        {
            "buffer": 0,
            "byteOffset": 776,
            "byteLength": 64,
            "target": 34962
        },
        {
            "buffer": 0,
            "byteOffset": 840,
            "byteLength": 24,
            "target": 34963
        },
        {
            "buffer": 0,
            "byteOffset": 864,
            "byteLength": 48,
            "target": 34962
        },
        {
            "buffer": 0,
            "byteOffset": 912,
            "byteLength": 48,
            "target": 34962
        },
        {
            "buffer": 0,
            "byteOffset": 960,
            "byteLength": 32,
            "target": 34962
        },
        {
            "buffer": 0,
            "byteOffset": 992,
            "byteLength": 12,
            "target": 34963
        }
    ],
    "materials": [
        {
            "name": "CONCRT01",
            "pbrMetallicRoughness": {
                "metallicFactor": 0.0
            }
        },
        {
            "name": "buttn",
            "pbrMetallicRoughness": {
                "baseColorFactor": [
                    0.800000011920929,
                    0.800000011920929,
                    0.800000011920929,
                    1.0
                ],
                "metallicFactor": 0.0
            }
        },
        {
            "name": "CONCRT03",
            "pbrMetallicRoughness": {
                "metallicFactor": 0.0
            }
        },
        {
            "name": "CONCRT02",
            "pbrMetallicRoughness": {
                "metallicFactor": 0.0
            }
        },
        {
            "name": "CONCRT04",
            "pbrMetallicRoughness": {
                "metallicFactor": 0.0
            }
        }
    ],
    "meshes": [
        {
            "name": "CONCRT01",
            "primitives": [
                {
                    "mode": 4,
                    "material": 0,
                    "indices": 3,
                    "attributes": {
                        "POSITION": 0,
                        "NORMAL": 1,
                        "TEXCOORD_0": 2
                    }
                },
                {
                    "mode": 4,
                    "material": 1,
                    "indices": 7,
                    "attributes": {
                        "POSITION": 4,
                        "NORMAL": 5,
                        "TEXCOORD_0": 6
                    }
                },
                {
                    "mode": 4,
                    "material": 2,
                    "indices": 11,
                    "attributes": {
                        "POSITION": 8,
                        "NORMAL": 9,
                        "TEXCOORD_0": 10
                    }
                },
                {
                    "mode": 4,
                    "material": 3,
                    "indices": 15,
                    "attributes": {
                        "POSITION": 12,
                        "NORMAL": 13,
                        "TEXCOORD_0": 14
                    }
                },
                {
                    "mode": 4,
                    "material": 4,
                    "indices": 19,
                    "attributes": {
                        "POSITION": 16,
                        "NORMAL": 17,
                        "TEXCOORD_0": 18
                    }
                }
            ]
        }
    ],
    "nodes": [
        {
            "name": "RootNode",
            "children": [
                1
            ]
        },
        {
            "name": "CONCRT01",
            "mesh": 0
        }
    ],
    "scenes": [
        {
            "nodes": [
                0
            ]
        }
    ],
    "scene": 0
}