{
    "asset": {
        "version": "2.0",
        "generator": "Open Asset Import Library (assimp v3.1.31193554)"
    },
    "accessors": [
        {
            "bufferView": 0,
            "byteOffset": 0,
            "componentType": 5126,
            "count": 12,
            "type": "VEC3",
            "max": [
                -5120.0,
                223.99998474121095,
                9200.0
            ],
            "min": [
                -5312.0,
                223.99998474121095,
                9168.0
            ]
        },
        {
            "bufferView": 1,
            "byteOffset": 0,
            "componentType": 5126,
            "count": 12,
            "type": "VEC3",
            "max": [
                0.0,
                1.0,
                0.0
            ],
            "min": [
                0.0,
                1.0,
                0.0
            ]
        },
        {
            "bufferView": 2,
            "byteOffset": 0,
            "componentType": 5126,
            "count": 12,
            "type": "VEC2",
            "max": [
                0.9916297197341919,
                0.9916297197341919
            ],
            "min": [
                0.008370297960937024,
                0.008370280265808106
            ]
        },
        {
            "bufferView": 3,
            "byteOffset": 0,
            "componentType": 5123,
            "count": 18,
            "type": "SCALAR",
            "max": [
                11.0
            ],
            "min": [
                0.0
            ]
        }
    ],
    "buffers": [
        {
            "byteLength": 420,
            "uri": "concrp_4.bin"
        }
    ],
    "bufferViews": [
        {
            "buffer": 0,
            "byteOffset": 0,
            "byteLength": 144,
            "target": 34962
        },
        {
            "buffer": 0,
            "byteOffset": 144,
            "byteLength": 144,
            "target": 34962
        },
        {
            "buffer": 0,
            "byteOffset": 288,
            "byteLength": 96,
            "target": 34962
        },
        {
            "buffer": 0,
            "byteOffset": 384,
            "byteLength": 36,
            "target": 34963
        }
    ],
    "materials": [
        {
            "name": "F_CONCRP",
            "pbrMetallicRoughness": {
                "metallicFactor": 0.0
            }
        }
    ],
    "meshes": [
        {
            "name": "F_CONCRP_4",
            "primitives": [
                {
                    "mode": 4,
                    "material": 0,
                    "indices": 3,
                    "attributes": {
                        "POSITION": 0,
                        "NORMAL": 1,
                        "TEXCOORD_0": 2
                    }
                }
            ]
        }
    ],
    "nodes": [
        {
            "name": "RootNode",
            "children": [
                1
            ]
        },
        {
            "name": "F_CONCRP_4",
            "mesh": 0
        }
    ],
    "scenes": [
        {
            "nodes": [
                0
            ]
        }
    ],
    "scene": 0
}